<svg xmlns="http://www.w3.org/2000/svg" xmlns:xlink="http://www.w3.org/1999/xlink" x="0" y="0" version="1.1" viewBox="0 0 513.5 443.2" xml:space="preserve" style="enable-background:new 0 0 513.5 443.2"><style type="text/css">.st0{fill:#5c2483}.st1{fill:#ffd500}</style><g id="Warstwa_4"><g><ellipse cx="209.3" cy="158.4" class="st1" rx="106.1" ry="106.1" transform="matrix(0.7071 -0.7071 0.7071 0.7071 -50.7241 194.4291)"/><g><path d="M79.9,273c0.5,0.8,1.1,1.6,1.5,2.4c0.4,0.7,0.8,1.4,1.1,2.1c0.3,0.7,0.5,1.4,0.5,2c0,18.5,0,37.1,0.1,55.6 c0,0.8-0.2,1.5-0.5,2.3c-0.3,0.7-0.7,1.5-1.1,2.2c-0.5,0.8-1,1.5-1.6,2.3c5.7,0,11.3,0,17,0c-0.6-0.6-1.2-1.2-1.7-2 c-0.4-0.6-0.8-1.3-1.1-2c-0.3-0.8-0.5-1.5-0.5-2.3c0-6.8,0-13.6-0.1-20.4c3.3,0.4,6.7,0.7,10.1,1c0,0,0.1,0,0.1,0 c0.8,0.1,1.5,0.3,2.2,0.7c0.7,0.4,1.3,0.8,1.9,1.2c0.6,0.5,1.2,1,1.8,1.5c0-5.1-0.1-10.1-0.1-15.2c-0.6,0.5-1.3,0.9-2,1.2 c-0.6,0.3-1.2,0.6-1.9,0.7c-0.7,0.2-1.3,0.3-2,0.2c0,0-0.1,0-0.1,0c-3.3-0.4-6.7-0.9-10-1.4c0-6.2,0-12.4-0.1-18.6 c4.4,1,8.9,1.9,13.3,2.7c1,0.2,1.9,0.5,2.8,1.1c0.9,0.5,1.8,1.1,2.5,1.7c0.8,0.7,1.7,1.4,2.5,2.2c0-12.2,0,0,0-12.2 C104,279.8,90.4,276,79.9,273z" class="st0"/><path d="M150,290.7c-1.5-1.4-3.3-2.6-5.2-3.5c-2-1-4.1-1.6-6.4-2c-1.1-0.2-2.2-0.3-3.2-0.5c-2.3-0.4-4.4-0.4-6.4,0 c-2,0.4-3.7,1.1-5.2,2.1c-1.5,1-2.7,2.3-3.5,3.9c-0.9,1.6-1.3,3.3-1.3,5.3c0.1,10.6,0.2,21.3,0.2,31.9c0,2,0.5,3.9,1.3,5.6 c0.9,1.8,2.1,3.3,3.6,4.6c1.5,1.3,3.3,2.3,5.3,3.1c2,0.8,4.1,1.1,6.4,1.1c1,0,2.1-0.1,3.1-0.1c2.3,0,4.4-0.4,6.4-1 c2-0.7,3.7-1.6,5.2-2.8c1.5-1.2,2.7-2.6,3.6-4.1c0.9-1.5,1.3-3.2,1.3-5c-0.1-9.6-0.2-19.3-0.2-28.9c0-1.8-0.5-3.5-1.4-5.1 C152.7,293.6,151.5,292.1,150,290.7z M144.3,328.5c0,1.2-0.5,2.4-1.6,3.4c-1.1,1.1-2.4,1.6-4,1.5c-1,0-2.1,0-3.1,0 c-1.6,0-3-0.6-4.1-1.8c-1.1-1.2-1.6-2.4-1.7-3.7c-0.1-9.9-0.2-19.9-0.3-29.8c0-1.3,0.5-2.4,1.6-3.4c1.1-1,2.4-1.3,4-1.1 c1.1,0.1,2.2,0.3,3.3,0.4c1.5,0.2,2.9,0.9,4,2.1c1.1,1.2,1.7,2.4,1.7,3.7C144.2,309.4,144.2,318.9,144.3,328.5z" class="st0"/><path d="M193.2,294c-1.5-1.2-3.3-2.1-5.3-2.9c-2-0.7-4.2-1.2-6.5-1.3c-1.1-0.1-2.2-0.1-3.3-0.2 c-2.3-0.2-4.5,0-6.5,0.5c-2,0.5-3.8,1.3-5.3,2.3c-1.5,1-2.7,2.3-3.6,3.7c-0.9,1.4-1.3,3.1-1.3,4.8c0.1,9.5,0.1,19,0.2,28.5 c0,1.8,0.5,3.4,1.3,5c0.9,1.6,2.1,2.9,3.6,4.1c1.5,1.2,3.3,2.1,5.3,2.8c2,0.7,4.1,1,6.4,1c1,0,2.1-0.1,3.1-0.1 c2.3,0,4.4-0.3,6.4-1c2-0.6,3.7-1.5,5.3-2.7c1.5-1.1,2.7-2.4,3.6-3.9c0.9-1.5,1.3-3,1.3-4.7c0-9.1,0-18.2-0.1-27.3 c0-1.7-0.4-3.3-1.3-4.8C195.9,296.5,194.7,295.2,193.2,294z M187.2,329.5c0,1.1-0.5,2.2-1.6,3.2c-1.1,1-2.4,1.5-4,1.5 c-1.1,0-2.1,0-3.2,0c-1.6,0-3-0.6-4.1-1.6c-1.1-1.1-1.6-2.2-1.6-3.3c-0.1-9-0.1-18-0.2-27c0-1.2,0.5-2.2,1.6-3.2 c1.1-1,2.4-1.4,4.1-1.3c1.1,0.1,2.2,0.1,3.3,0.2c1.5,0.1,2.9,0.6,4,1.7c1.1,1.1,1.7,2.2,1.7,3.3 C187.2,311.8,187.2,320.6,187.2,329.5z" class="st0"/><path d="M237.6,294.2c-1.5-1-3.2-1.8-5.2-2.4c-2-0.6-4.2-0.8-6.5-0.7c-7,0.2-14,0.3-21,0.3c0.6,0.8,1.1,1.5,1.6,2.2 c0.4,0.6,0.8,1.2,1.2,1.8c0.3,0.7,0.5,1.2,0.5,1.6c0,13,0,26,0,39c0,0.7-0.2,1.4-0.5,2.1c-0.4,0.7-0.7,1.3-1.1,2 c-0.5,0.7-1,1.4-1.6,2.1c7,0,14,0,20.9,0c2.3,0,4.4-0.3,6.4-1c2-0.6,3.7-1.5,5.2-2.6c1.5-1.1,2.6-2.4,3.5-3.9 c0.9-1.5,1.3-3.1,1.3-4.8c0.1-9.1,0.1-18.1,0.2-27.2c0-1.7-0.4-3.3-1.3-4.7C240.3,296.4,239.1,295.2,237.6,294.2z M231.4,329.9 c0,1.1-0.6,2.1-1.6,2.9c-1.1,0.8-2.4,1.2-3.9,1.2c-2.4,0-4.8,0-7.2,0c0-11.6,0-23.2,0.1-34.8c2.4,0,4.8-0.1,7.2-0.2 c1.5,0,2.9,0.3,3.9,1.1c1.1,0.8,1.6,1.7,1.6,2.9C231.5,312.1,231.4,321,231.4,329.9z" class="st0"/><path d="M263.8,291c0.3-0.6,0.7-1.2,1.1-1.7c0.5-0.6,1.1-1.1,1.7-1.6c-5.8,0.7-11.6,1.3-17.4,1.8 c0.6,0.4,1.1,0.9,1.6,1.5c0.4,0.4,0.8,0.9,1.1,1.5c0.3,0.6,0.5,1.1,0.5,1.7c-0.1,14.2-0.2,28.4-0.3,42.6c0,0.7-0.2,1.3-0.5,1.9 c-0.4,0.6-0.7,1.1-1.2,1.6c-0.5,0.6-1,1.1-1.6,1.6c5.8,0,11.5,0,17.3,0c-0.6-0.4-1.2-1-1.7-1.5c-0.4-0.5-0.8-1.1-1.1-1.7 c-0.3-0.6-0.5-1.4-0.5-2.1c0.1-14.5,0.2-29,0.4-43.5C263.3,292.3,263.5,291.7,263.8,291z" class="st0"/><path d="M314.3,283c0.3-0.7,0.7-1.4,1.1-2c0.5-0.7,1-1.5,1.7-2.2c-5.6,1.3-11.3,2.5-17,3.7c0.6,0.4,1.2,0.9,1.6,1.4 c0.4,0.4,0.8,0.9,1.1,1.4c0.3,0.5,0.5,1.1,0.5,1.6c-0.1,10-0.1,20-0.2,30.1c-4.9-9.3-9.8-18.1-14.6-26.7 c-0.2-0.7-0.2-1.3,0.1-2.1c0.3-0.7,0.6-1.4,1.1-2c0.5-0.7,1.1-1.4,1.8-2.1c-6.2,1.1-12.5,2.1-18.8,2.9c0.6,0.5,1.1,1,1.6,1.5 c0.4,0.4,0.8,0.9,1.1,1.4c0.3,0.5,0.5,0.9,0.5,1.3c-0.1,15.1-0.2,30.2-0.3,45.3c0,0.7-0.2,1.4-0.5,2.1c-0.4,0.6-0.7,1.2-1.2,1.7 c-0.5,0.6-1.1,1.1-1.7,1.6c5.7,0,11.4,0,17.1,0c-0.6-0.5-1.2-1-1.7-1.6c-0.4-0.5-0.8-1-1.1-1.7c-0.3-0.7-0.5-1.4-0.5-2.2 c0.1-10.1,0.2-20.2,0.3-30.2c5.1,9.1,10.2,18.6,15.4,28.7c0.4,1,0.5,2,0.2,2.8c-0.2,0.9-0.6,1.6-1,2.2c-0.5,0.7-1.1,1.4-1.9,1.9 c5.9,0,11.8,0,17.7,0c-0.6-0.6-1.2-1.2-1.7-1.9c-0.4-0.6-0.8-1.2-1.1-1.9c-0.3-0.7-0.5-1.4-0.5-2.3c0.1-17,0.2-34,0.3-51 C313.8,284.3,314,283.7,314.3,283z" class="st0"/><path d="M336.6,337.7c-0.3-0.8-0.5-1.7-0.5-2.7c0-18.3,0-36.7,0.1-55c0-0.9,0.2-1.7,0.5-2.6c0.3-0.8,0.7-1.6,1.1-2.3 c0.5-0.8,1-1.6,1.6-2.2c-5.6,1.6-11.3,3.1-17,4.5c0.5,0.4,1.1,1,1.5,1.6c0.4,0.5,0.8,1.1,1.1,1.7c0.3,0.6,0.5,1.3,0.5,2 c-0.1,17.6-0.1,35.2-0.2,52.7c0,0.9-0.2,1.6-0.5,2.4c-0.4,0.7-0.7,1.4-1.2,2c-0.5,0.7-1,1.4-1.6,2c5.8,0,11.5,0,17.3,0 c-0.6-0.6-1.2-1.2-1.7-2C337.3,339.2,336.9,338.5,336.6,337.7z" class="st0"/></g><g><path d="M209.6,48.3C149.2,48.3,99.9,97.6,99.9,158c0,60.5,49.2,109.7,109.7,109.7c60.5,0,109.7-49.2,109.7-109.7 C319.3,97.6,270.1,48.3,209.6,48.3z M172.4,190.8c2.1-2.3,8-7.5,13.4-10c3.5-1.6,4.4-0.5,4.4,1.7l29.3-19.6l2.5,3.7l-31.6,21.1 c0,0,0,0-0.3,2.9c-0.6,5.1-8,9.1-16.1,10.9C172.7,201.7,170.4,193.1,172.4,190.8z M229.3,161.7l-4.4,3l-2.5-3.7l4.4-2.9 L229.3,161.7z M248.1,222.6h-13.3c-0.1,1.1,0.3,3.9-1,3.9c-7.1-0.2-13.1,1.6-15,2c-2.3,0.5-5.3-1.4-8.4-2.7 c-3.1-1.3-6.5-0.7-5.8-3.2H184c-1.1,0-2.1-0.9-2.1-2.1v-1.6c0-1.1,0.9-2.1,2.1-2.1h3.4c1.1-13.9,11.9-25,25.6-26.4 c-0.7-0.7-1.2-1.8-1.2-2.9c0-2.3,1.8-4.1,4.1-4.1c2.3,0,4.1,1.8,4.1,4.1c0,1.1-0.5,2.1-1.2,2.9c13.8,1.4,24.6,12.5,25.6,26.4h3.4 c1.2,0,2.1,0.9,2.1,2.1v1.6C250.2,221.7,249.2,222.6,248.1,222.6z M250,251c0-3.1-0.4-9-0.4-9s12.9-5.3,14.2-10.1 c11.8-42.7-7.4-75-7.4-75c-7.9-8.7-33.6-6.4-34.8-16.8l4-7.9c0,0,6.8-11.5,5.4-15.7c-0.5-1.5-2.7,0-2.7,0v-5.3 c8.3-0.5,9-5.8,8.9-6.1c-0.2-0.8-0.5-1.5-0.9-2.2c-0.9-1.2-2.2-1.7-3.6-1.8c-4.2-0.5-8.7,1-12.7,1.8c-6.3,1.3-13.3,1.3-19.7,0.5 c-4.6-0.6-9-2.1-13.6-2.4c-1.7-0.1-3.7,0-5.1,1.2c-0.7,0.6-1.1,1.4-1.4,2.3c-0.1,0.4,0.8,5.5,8.8,6.6v5.3c0,0-2.2-1.5-2.7,0 c-1.4,4.2,5.4,15.7,5.4,15.7l4,7.9c-1.3,11.4-31.6,7.6-36.5,19.3c-6.4,15-18.5,56.6-3.7,61.2c4.8,1.5,7.3-3.8,7.6-1.1 c1.2,9.4,1,17-1.7,27.6c-31.5-17.2-52.9-50.6-52.9-89c0-55.9,45.5-101.3,101.3-101.3C265.5,56.7,311,102.2,311,158 C311,199.6,285.9,235.3,250,251z" class="st0"/><polygon points="259.9 82.7 257.6 87.4 252.4 88.2 256.1 91.9 255.3 97.1 259.9 94.6 264.6 97.1 263.7 91.9 267.4 88.2 262.2 87.4" class="st0"/><polygon points="280.4 120.9 283.6 119.2 286.7 120.9 286.1 117.4 288.7 114.9 285.2 114.4 283.6 111.2 282 114.4 278.5 114.9 281 117.4" class="st0"/><polygon points="154.8 98.1 158.8 100.2 158.1 95.7 161.4 92.5 156.8 91.8 154.8 87.7 152.7 91.8 148.2 92.5 151.5 95.7 150.7 100.2" class="st0"/><polygon points="130.8 171.1 128.6 166.7 126.4 171.1 121.5 171.8 125.1 175.3 124.2 180.1 128.6 177.8 133 180.1 132.2 175.3 135.7 171.8" class="st0"/><polygon points="291.9 183.8 289.8 179.5 287.7 183.8 283 184.4 286.4 187.7 285.6 192.4 289.8 190.2 293.9 192.4 293.2 187.7 296.5 184.4" class="st0"/><polygon points="128.2 128.5 125.6 133.8 119.8 134.6 124 138.7 123 144.5 128.2 141.8 133.4 144.5 132.4 138.7 136.6 134.6 130.8 133.8" class="st0"/><polygon points="288.7 156.4 294.8 159.6 293.6 152.8 298.6 147.9 291.7 146.9 288.7 140.7 285.6 146.9 278.8 147.9 283.7 152.8 282.6 159.6" class="st0"/><polygon points="261.3 125.9 258.8 120.9 256.3 125.9 250.8 126.7 254.8 130.6 253.9 136.1 258.8 133.5 263.8 136.1 262.8 130.6 266.8 126.7" class="st0"/><polygon points="163.5 124 161.4 119.8 159.4 124 154.8 124.6 158.1 127.9 157.3 132.5 161.4 130.3 165.6 132.5 164.8 127.9 168.1 124.6" class="st0"/><path d="M208.8,65.2c-2.2,0-4.5,0.1-6.7,0.1c-3.1,0.1-6.2,0.3-9.3,0.7c-1.9,0.2-4.1,0.4-5.8,1.4 c-0.4,0.2-1,0.5-0.9,1.1l3,28.1c6.6,1.8,13.4,2.7,20.3,2.8c5.5,0.1,11-1,16.3-2.3c0.8-0.2,1.5-0.4,2.3-0.6l3-28.1 c0.2-2-6.8-2.4-7.9-2.6C218.4,65.4,213.6,65.2,208.8,65.2z" class="st0"/></g></g></g></svg>