<svg xmlns="http://www.w3.org/2000/svg" xmlns:xlink="http://www.w3.org/1999/xlink" id="Layer_1" x="0" y="0" version="1.1" viewBox="0 0 1397.1 621.5" xml:space="preserve" style="enable-background:new 0 0 1397.1 621.5"><style type="text/css">.st0{fill:#5c2483}.st1{fill:#ffd500}.st2{fill:#fff}.st3{fill:#340c46}</style><rect width="841.9" height="297.6" x="-2103.4" y="180.3" class="st0"/><g><ellipse cx="-1682.6" cy="16.5" class="st1" rx="37.7" ry="37.7" transform="matrix(0.7071 -0.7071 0.7071 0.7071 -504.4738 -1184.9498)"/><g><path d="M-1728.6,57.2c0.2,0.3,0.4,0.6,0.5,0.9c0.1,0.2,0.3,0.5,0.4,0.8c0.1,0.3,0.2,0.5,0.2,0.7c0,6.6,0,13.2,0,19.8 c0,0.3-0.1,0.5-0.2,0.8c-0.1,0.3-0.3,0.5-0.4,0.8c-0.2,0.3-0.4,0.5-0.6,0.8c2,0,4,0,6,0c-0.2-0.2-0.4-0.4-0.6-0.7 c-0.1-0.2-0.3-0.5-0.4-0.7c-0.1-0.3-0.2-0.5-0.2-0.8c0-2.4,0-4.8,0-7.2c1.2,0.1,2.4,0.2,3.6,0.4c0,0,0,0,0,0 c0.3,0,0.5,0.1,0.8,0.2c0.2,0.1,0.5,0.3,0.7,0.4c0.2,0.2,0.4,0.4,0.6,0.5c0-1.8,0-3.6,0-5.4c-0.2,0.2-0.5,0.3-0.7,0.4 c-0.2,0.1-0.4,0.2-0.7,0.3c-0.2,0.1-0.5,0.1-0.7,0.1c0,0,0,0,0,0c-1.2-0.2-2.4-0.3-3.6-0.5c0-2.2,0-4.4,0-6.6 c1.6,0.3,3.1,0.7,4.7,1c0.3,0.1,0.7,0.2,1,0.4c0.3,0.2,0.6,0.4,0.9,0.6c0.3,0.2,0.6,0.5,0.9,0.8c0-4.3,0,0,0-4.3 C-1720,59.6-1724.8,58.2-1728.6,57.2z" class="st0"/><path d="M-1703.7,63.5c-0.5-0.5-1.2-0.9-1.9-1.3c-0.7-0.3-1.5-0.6-2.3-0.7c-0.4-0.1-0.8-0.1-1.1-0.2 c-0.8-0.1-1.6-0.1-2.3,0c-0.7,0.1-1.3,0.4-1.9,0.8c-0.5,0.4-1,0.8-1.3,1.4c-0.3,0.6-0.5,1.2-0.4,1.9c0,3.8,0.1,7.6,0.1,11.3 c0,0.7,0.2,1.4,0.5,2c0.3,0.6,0.7,1.2,1.3,1.6c0.5,0.5,1.2,0.8,1.9,1.1c0.7,0.3,1.5,0.4,2.3,0.4c0.4,0,0.7,0,1.1,0 c0.8,0,1.6-0.1,2.3-0.4c0.7-0.2,1.3-0.6,1.9-1c0.5-0.4,1-0.9,1.3-1.5c0.3-0.5,0.5-1.1,0.4-1.8c0-3.4-0.1-6.8-0.1-10.3 c0-0.6-0.2-1.2-0.5-1.8C-1702.7,64.5-1703.1,64-1703.7,63.5z M-1705.7,76.9c0,0.4-0.2,0.8-0.6,1.2c-0.4,0.4-0.9,0.6-1.4,0.5 c-0.4,0-0.7,0-1.1,0c-0.6,0-1.1-0.2-1.4-0.7c-0.4-0.4-0.6-0.9-0.6-1.3c0-3.5-0.1-7.1-0.1-10.6c0-0.5,0.2-0.9,0.6-1.2 c0.4-0.3,0.9-0.5,1.4-0.4c0.4,0.1,0.8,0.1,1.2,0.2c0.5,0.1,1,0.3,1.4,0.8c0.4,0.4,0.6,0.9,0.6,1.3 C-1705.7,70.1-1705.7,73.5-1705.7,76.9z" class="st0"/><path d="M-1688.3,64.6c-0.5-0.4-1.2-0.8-1.9-1c-0.7-0.3-1.5-0.4-2.3-0.5c-0.4,0-0.8,0-1.2-0.1c-0.8-0.1-1.6,0-2.3,0.2 c-0.7,0.2-1.3,0.4-1.9,0.8c-0.5,0.4-1,0.8-1.3,1.3c-0.3,0.5-0.5,1.1-0.5,1.7c0,3.4,0.1,6.7,0.1,10.1c0,0.6,0.2,1.2,0.5,1.8 c0.3,0.6,0.7,1,1.3,1.4c0.5,0.4,1.2,0.7,1.9,1c0.7,0.2,1.5,0.4,2.3,0.4c0.4,0,0.7,0,1.1,0c0.8,0,1.6-0.1,2.3-0.3 c0.7-0.2,1.3-0.5,1.9-0.9c0.5-0.4,1-0.9,1.3-1.4c0.3-0.5,0.5-1.1,0.5-1.7c0-3.2,0-6.5,0-9.7c0-0.6-0.2-1.2-0.5-1.7 C-1687.4,65.5-1687.8,65.1-1688.3,64.6z M-1690.4,77.2c0,0.4-0.2,0.8-0.6,1.1c-0.4,0.4-0.9,0.5-1.4,0.5c-0.4,0-0.7,0-1.1,0 c-0.6,0-1.1-0.2-1.4-0.6c-0.4-0.4-0.6-0.8-0.6-1.2c0-3.2,0-6.4-0.1-9.6c0-0.4,0.2-0.8,0.6-1.1c0.4-0.3,0.9-0.5,1.4-0.5 c0.4,0,0.8,0,1.2,0.1c0.5,0,1,0.2,1.4,0.6c0.4,0.4,0.6,0.8,0.6,1.2C-1690.4,70.9-1690.4,74.1-1690.4,77.2z" class="st0"/><path d="M-1672.5,64.7c-0.5-0.4-1.1-0.6-1.9-0.8c-0.7-0.2-1.5-0.3-2.3-0.2c-2.5,0.1-5,0.1-7.5,0.1 c0.2,0.3,0.4,0.5,0.6,0.8c0.1,0.2,0.3,0.4,0.4,0.7c0.1,0.2,0.2,0.4,0.2,0.6c0,4.6,0,9.2,0,13.9c0,0.3-0.1,0.5-0.2,0.7 c-0.1,0.2-0.3,0.5-0.4,0.7c-0.2,0.3-0.4,0.5-0.6,0.7c2.5,0,5,0,7.4,0c0.8,0,1.6-0.1,2.3-0.3c0.7-0.2,1.3-0.5,1.8-0.9 c0.5-0.4,0.9-0.9,1.2-1.4c0.3-0.5,0.5-1.1,0.5-1.7c0-3.2,0-6.4,0.1-9.6c0-0.6-0.1-1.2-0.5-1.7C-1671.6,65.5-1672,65.1-1672.5,64.7 z M-1674.8,77.4c0,0.4-0.2,0.8-0.6,1c-0.4,0.3-0.8,0.4-1.4,0.4c-0.9,0-1.7,0-2.6,0c0-4.1,0-8.2,0-12.4c0.9,0,1.7,0,2.6-0.1 c0.5,0,1,0.1,1.4,0.4c0.4,0.3,0.6,0.6,0.6,1C-1674.7,71-1674.7,74.2-1674.8,77.4z" class="st0"/><path d="M-1663.2,63.6c0.1-0.2,0.2-0.4,0.4-0.6c0.2-0.2,0.4-0.4,0.6-0.6c-2.1,0.3-4.1,0.5-6.2,0.6 c0.2,0.2,0.4,0.3,0.6,0.5c0.1,0.2,0.3,0.3,0.4,0.5c0.1,0.2,0.2,0.4,0.2,0.6c0,5-0.1,10.1-0.1,15.1c0,0.2-0.1,0.5-0.2,0.7 c-0.1,0.2-0.3,0.4-0.4,0.6c-0.2,0.2-0.4,0.4-0.6,0.6c2,0,4.1,0,6.1,0c-0.2-0.2-0.4-0.3-0.6-0.6c-0.1-0.2-0.3-0.4-0.4-0.6 c-0.1-0.2-0.2-0.5-0.2-0.8c0-5.2,0.1-10.3,0.1-15.5C-1663.4,64-1663.4,63.8-1663.2,63.6z" class="st0"/><path d="M-1645.3,60.7c0.1-0.2,0.3-0.5,0.4-0.7c0.2-0.3,0.4-0.5,0.6-0.8c-2,0.5-4,0.9-6,1.3c0.2,0.1,0.4,0.3,0.6,0.5 c0.1,0.1,0.3,0.3,0.4,0.5c0.1,0.2,0.2,0.4,0.2,0.6c0,3.6-0.1,7.1-0.1,10.7c-1.7-3.3-3.5-6.4-5.2-9.5c-0.1-0.2-0.1-0.5,0-0.7 c0.1-0.3,0.2-0.5,0.4-0.7c0.2-0.3,0.4-0.5,0.6-0.8c-2.2,0.4-4.4,0.7-6.7,1c0.2,0.2,0.4,0.4,0.6,0.5c0.1,0.2,0.3,0.3,0.4,0.5 c0.1,0.2,0.2,0.3,0.2,0.5c0,5.4-0.1,10.7-0.1,16.1c0,0.3-0.1,0.5-0.2,0.7c-0.1,0.2-0.3,0.4-0.4,0.6c-0.2,0.2-0.4,0.4-0.6,0.6 c2,0,4,0,6.1,0c-0.2-0.2-0.4-0.3-0.6-0.6c-0.1-0.2-0.3-0.4-0.4-0.6c-0.1-0.2-0.2-0.5-0.2-0.8c0-3.6,0.1-7.2,0.1-10.7 c1.8,3.2,3.6,6.6,5.5,10.2c0.1,0.4,0.2,0.7,0.1,1c-0.1,0.3-0.2,0.6-0.4,0.8c-0.2,0.3-0.4,0.5-0.7,0.7c2.1,0,4.2,0,6.3,0 c-0.2-0.2-0.4-0.4-0.6-0.7c-0.1-0.2-0.3-0.4-0.4-0.7c-0.1-0.2-0.2-0.5-0.2-0.8c0-6,0.1-12.1,0.1-18.1 C-1645.5,61.2-1645.4,61-1645.3,60.7z" class="st0"/><path d="M-1637.4,80.2c-0.1-0.3-0.2-0.6-0.2-0.9c0-6.5,0-13,0-19.5c0-0.3,0.1-0.6,0.2-0.9c0.1-0.3,0.2-0.6,0.4-0.8 c0.2-0.3,0.4-0.6,0.6-0.8c-2,0.6-4,1.1-6,1.6c0.2,0.2,0.4,0.3,0.5,0.6c0.1,0.2,0.3,0.4,0.4,0.6c0.1,0.2,0.2,0.5,0.2,0.7 c0,6.2,0,12.5-0.1,18.7c0,0.3-0.1,0.6-0.2,0.8c-0.1,0.3-0.3,0.5-0.4,0.7c-0.2,0.3-0.4,0.5-0.6,0.7c2,0,4.1,0,6.1,0 c-0.2-0.2-0.4-0.4-0.6-0.7C-1637.1,80.7-1637.3,80.4-1637.4,80.2z" class="st0"/></g><g><path d="M-1682.5-22.6c-21.5,0-39,17.5-39,39c0,21.5,17.5,39,39,39c21.5,0,39-17.5,39-39 C-1643.5-5.1-1661-22.6-1682.5-22.6z M-1695.7,28c0.7-0.8,2.8-2.7,4.8-3.6c1.3-0.6,1.5-0.2,1.5,0.6l10.4-7l0.9,1.3l-11.2,7.5 c0,0,0,0-0.1,1c-0.2,1.8-2.8,3.2-5.7,3.9C-1695.6,31.9-1696.4,28.8-1695.7,28z M-1675.5,17.6l-1.6,1.1l-0.9-1.3l1.6-1 L-1675.5,17.6z M-1668.8,39.3h-4.7c0,0.4,0.1,1.4-0.3,1.4c-2.5-0.1-4.6,0.6-5.3,0.7c-0.8,0.2-1.9-0.5-3-1c-1.1-0.5-2.3-0.2-2-1.1 h-7.3c-0.4,0-0.7-0.3-0.7-0.7V38c0-0.4,0.3-0.7,0.7-0.7h1.2c0.4-4.9,4.2-8.9,9.1-9.4c-0.3-0.3-0.4-0.6-0.4-1 c0-0.8,0.7-1.5,1.5-1.5c0.8,0,1.5,0.7,1.5,1.5c0,0.4-0.2,0.8-0.4,1c4.9,0.5,8.7,4.5,9.1,9.4h1.2c0.4,0,0.7,0.3,0.7,0.7v0.6 C-1668.1,38.9-1668.4,39.3-1668.8,39.3z M-1668.1,49.3c0-1.1-0.1-3.2-0.1-3.2s4.6-1.9,5.1-3.6c4.2-15.2-2.6-26.6-2.6-26.6 c-2.8-3.1-11.9-2.3-12.4-6l1.4-2.8c0,0,2.4-4.1,1.9-5.6c-0.2-0.5-1,0-1,0v-1.9c3-0.2,3.2-2,3.2-2.2c-0.1-0.3-0.2-0.5-0.3-0.8 c-0.3-0.4-0.8-0.6-1.3-0.7c-1.5-0.2-3.1,0.4-4.5,0.6c-2.2,0.4-4.7,0.5-7,0.2c-1.6-0.2-3.2-0.8-4.8-0.8c-0.6,0-1.3,0-1.8,0.4 c-0.2,0.2-0.4,0.5-0.5,0.8c0,0.1,0.3,2,3.1,2.4v1.9c0,0-0.8-0.5-1,0c-0.5,1.5,1.9,5.6,1.9,5.6l1.4,2.8c-0.5,4-11.2,2.7-13,6.9 c-2.3,5.3-6.6,20.1-1.3,21.7c1.7,0.5,2.6-1.4,2.7-0.4c0.4,3.3,0.3,6-0.6,9.8c-11.2-6.1-18.8-18-18.8-31.6c0-19.8,16.1-36,36-36 c19.8,0,36,16.1,36,36C-1646.5,31.1-1655.4,43.8-1668.1,49.3z" class="st0"/><polygon points="-1664.6 -10.4 -1665.5 -8.7 -1667.3 -8.5 -1666 -7.2 -1666.3 -5.3 -1664.6 -6.2 -1663 -5.3 -1663.3 -7.2 -1662 -8.5 -1663.8 -8.7" class="st0"/><polygon points="-1657.3 3.1 -1656.2 2.6 -1655.1 3.1 -1655.3 1.9 -1654.4 1 -1655.7 .8 -1656.2 -.3 -1656.8 .8 -1658 1 -1657.1 1.9" class="st0"/><polygon points="-1702 -5 -1700.5 -4.2 -1700.8 -5.8 -1699.6 -7 -1701.3 -7.2 -1702 -8.7 -1702.7 -7.2 -1704.3 -7 -1703.2 -5.8 -1703.4 -4.2" class="st0"/><polygon points="-1710.5 21 -1711.3 19.4 -1712 21 -1713.8 21.2 -1712.5 22.5 -1712.8 24.2 -1711.3 23.4 -1709.7 24.2 -1710 22.5 -1708.8 21.2" class="st0"/><polygon points="-1653.3 25.5 -1654 24 -1654.8 25.5 -1656.4 25.7 -1655.2 26.9 -1655.5 28.5 -1654 27.8 -1652.5 28.5 -1652.8 26.9 -1651.6 25.7" class="st0"/><polygon points="-1711.4 5.9 -1712.3 7.7 -1714.4 8 -1712.9 9.5 -1713.3 11.5 -1711.4 10.6 -1709.6 11.5 -1709.9 9.5 -1708.4 8 -1710.5 7.7" class="st0"/><polygon points="-1654.4 15.7 -1652.2 16.9 -1652.7 14.5 -1650.9 12.7 -1653.3 12.4 -1654.4 10.2 -1655.5 12.4 -1657.9 12.7 -1656.2 14.5 -1656.6 16.9" class="st0"/><polygon points="-1664.1 4.9 -1665 3.2 -1665.9 4.9 -1667.9 5.2 -1666.4 6.6 -1666.8 8.6 -1665 7.6 -1663.3 8.6 -1663.6 6.6 -1662.2 5.2" class="st0"/><polygon points="-1698.9 4.2 -1699.6 2.7 -1700.3 4.2 -1702 4.5 -1700.8 5.6 -1701.1 7.3 -1699.6 6.5 -1698.1 7.3 -1698.4 5.6 -1697.2 4.5" class="st0"/><path d="M-1682.8-16.6c-0.8,0-1.6,0-2.4,0.1c-1.1,0-2.2,0.1-3.3,0.3c-0.7,0.1-1.5,0.2-2.1,0.5 c-0.1,0.1-0.4,0.2-0.3,0.4l1.1,10c2.4,0.6,4.8,1,7.2,1c1.9,0,3.9-0.4,5.8-0.8c0.3-0.1,0.5-0.1,0.8-0.2l1.1-10 c0.1-0.7-2.4-0.9-2.8-0.9C-1679.4-16.6-1681.1-16.6-1682.8-16.6z" class="st0"/></g></g><g><path d="M-1527.4,58c0.1,0.2,0.3,0.5,0.4,0.8c0.1,0.3,0.2,0.5,0.2,0.7c0,6.6,0,13.2,0,19.8c0,0.3-0.1,0.5-0.2,0.8 c-0.1,0.3-0.3,0.5-0.4,0.8c-0.2,0.3-0.4,0.5-0.6,0.8c2,0,4,0,6,0c-0.2-0.2-0.4-0.4-0.6-0.7c-0.1-0.2-0.3-0.5-0.4-0.7 c-0.1-0.3-0.2-0.5-0.2-0.8c0-2.4,0-4.8,0-7.2c1.2,0.1,2.4,0.2,3.6,0.4c0,0,0,0,0,0c0.3,0,0.5,0.1,0.8,0.2c0.2,0.1,0.5,0.3,0.7,0.4 c0.2,0.2,0.4,0.4,0.6,0.5c0-1.8,0-3.6,0-5.4c-0.2,0.2-0.5,0.3-0.7,0.4c-0.2,0.1-0.4,0.2-0.7,0.3c-0.2,0.1-0.5,0.1-0.7,0.1 c0,0,0,0,0,0c-1.2-0.2-2.4-0.3-3.6-0.5c0-2.2,0-4.4,0-6.6c1.6,0.3,3.1,0.7,4.7,1c0.3,0.1,0.7,0.2,1,0.4c0.3,0.2,0.6,0.4,0.9,0.6 c0.3,0.2,0.6,0.5,0.9,0.8c0-4.3,0,0,0-4.3c-3.8-0.8-8.6-2.2-12.3-3.2C-1527.7,57.4-1527.5,57.7-1527.4,58z"/><path d="M-1501.7,65.1c-0.3-0.6-0.7-1.1-1.3-1.6c-0.5-0.5-1.2-0.9-1.9-1.3c-0.7-0.3-1.5-0.6-2.3-0.7c-0.4-0.1-0.8-0.1-1.1-0.2 c-0.8-0.1-1.6-0.1-2.3,0c-0.7,0.1-1.3,0.4-1.9,0.8c-0.5,0.4-1,0.8-1.3,1.4c-0.3,0.6-0.5,1.2-0.4,1.9c0,3.8,0.1,7.6,0.1,11.3 c0,0.7,0.2,1.4,0.5,2c0.3,0.6,0.7,1.2,1.3,1.6c0.5,0.5,1.2,0.8,1.9,1.1c0.7,0.3,1.5,0.4,2.3,0.4c0.4,0,0.7,0,1.1,0 c0.8,0,1.6-0.1,2.3-0.4c0.7-0.2,1.3-0.6,1.9-1c0.5-0.4,1-0.9,1.3-1.5c0.3-0.5,0.5-1.1,0.4-1.8c0-3.4-0.1-6.8-0.1-10.3 C-1501.3,66.3-1501.4,65.7-1501.7,65.1z M-1505.6,78.1c-0.4,0.4-0.9,0.6-1.4,0.5c-0.4,0-0.7,0-1.1,0c-0.6,0-1.1-0.2-1.4-0.7 c-0.4-0.4-0.6-0.9-0.6-1.3c0-3.5-0.1-7.1-0.1-10.6c0-0.5,0.2-0.9,0.6-1.2c0.4-0.3,0.9-0.5,1.4-0.4c0.4,0.1,0.8,0.1,1.2,0.2 c0.5,0.1,1,0.3,1.4,0.8c0.4,0.4,0.6,0.9,0.6,1.3c0,3.4,0,6.8,0.1,10.2C-1505.1,77.3-1505.2,77.7-1505.6,78.1z"/><path d="M-1486.4,66.1c-0.3-0.5-0.7-1-1.3-1.4c-0.5-0.4-1.2-0.8-1.9-1c-0.7-0.3-1.5-0.4-2.3-0.5c-0.4,0-0.8,0-1.2-0.1 c-0.8-0.1-1.6,0-2.3,0.2c-0.7,0.2-1.3,0.4-1.9,0.8c-0.5,0.4-1,0.8-1.3,1.3c-0.3,0.5-0.5,1.1-0.5,1.7c0,3.4,0.1,6.7,0.1,10.1 c0,0.6,0.2,1.2,0.5,1.8c0.3,0.6,0.7,1,1.3,1.4c0.5,0.4,1.2,0.7,1.9,1c0.7,0.2,1.5,0.4,2.3,0.4c0.4,0,0.7,0,1.1,0 c0.8,0,1.6-0.1,2.3-0.3c0.7-0.2,1.3-0.5,1.9-0.9c0.5-0.4,1-0.9,1.3-1.4c0.3-0.5,0.5-1.1,0.5-1.7c0-3.2,0-6.5,0-9.7 C-1485.9,67.1-1486.1,66.6-1486.4,66.1z M-1490.4,78.4c-0.4,0.4-0.9,0.5-1.4,0.5c-0.4,0-0.7,0-1.1,0c-0.6,0-1.1-0.2-1.4-0.6 c-0.4-0.4-0.6-0.8-0.6-1.2c0-3.2,0-6.4-0.1-9.6c0-0.4,0.2-0.8,0.6-1.1c0.4-0.3,0.9-0.5,1.4-0.5c0.4,0,0.8,0,1.2,0.1 c0.5,0,1,0.2,1.4,0.6c0.4,0.4,0.6,0.8,0.6,1.2c0,3.1,0,6.3,0,9.4C-1489.8,77.6-1490,78-1490.4,78.4z"/><path d="M-1471.9,64.7c-0.5-0.4-1.1-0.6-1.9-0.8c-0.7-0.2-1.5-0.3-2.3-0.2c-2.5,0.1-5,0.1-7.5,0.1c0.2,0.3,0.4,0.5,0.6,0.8 c0.1,0.2,0.3,0.4,0.4,0.7c0.1,0.2,0.2,0.4,0.2,0.6c0,4.6,0,9.2,0,13.9c0,0.3-0.1,0.5-0.2,0.7c-0.1,0.2-0.3,0.5-0.4,0.7 c-0.2,0.3-0.4,0.5-0.6,0.7c2.5,0,5,0,7.4,0c0.8,0,1.6-0.1,2.3-0.3c0.7-0.2,1.3-0.5,1.8-0.9c0.5-0.4,0.9-0.9,1.2-1.4 c0.3-0.5,0.5-1.1,0.5-1.7c0-3.2,0-6.4,0.1-9.6c0-0.6-0.1-1.2-0.5-1.7C-1471,65.5-1471.4,65.1-1471.9,64.7z M-1474.1,77.4 c0,0.4-0.2,0.8-0.6,1c-0.4,0.3-0.8,0.4-1.4,0.4c-0.9,0-1.7,0-2.6,0c0-4.1,0-8.2,0-12.4c0.9,0,1.7,0,2.6-0.1c0.5,0,1,0.1,1.4,0.4 c0.4,0.3,0.6,0.6,0.6,1C-1474.1,71-1474.1,74.2-1474.1,77.4z"/><path d="M-1462.6,63.6c0.1-0.2,0.2-0.4,0.4-0.6c0.2-0.2,0.4-0.4,0.6-0.6c-2.1,0.3-4.1,0.5-6.2,0.6c0.2,0.2,0.4,0.3,0.6,0.5 c0.1,0.2,0.3,0.3,0.4,0.5c0.1,0.2,0.2,0.4,0.2,0.6c0,5-0.1,10.1-0.1,15.1c0,0.2-0.1,0.5-0.2,0.7c-0.1,0.2-0.3,0.4-0.4,0.6 c-0.2,0.2-0.4,0.4-0.6,0.6c2,0,4.1,0,6.1,0c-0.2-0.2-0.4-0.3-0.6-0.6c-0.1-0.2-0.3-0.4-0.4-0.6c-0.1-0.2-0.2-0.5-0.2-0.8 c0-5.2,0.1-10.3,0.1-15.5C-1462.8,64-1462.7,63.8-1462.6,63.6z"/><path d="M-1444.7,60.7c0.1-0.2,0.3-0.5,0.4-0.7c0.2-0.3,0.4-0.5,0.6-0.8c-2,0.5-4,0.9-6,1.3c0.2,0.1,0.4,0.3,0.6,0.5 c0.1,0.1,0.3,0.3,0.4,0.5c0.1,0.2,0.2,0.4,0.2,0.6c0,3.6-0.1,7.1-0.1,10.7c-1.7-3.3-3.5-6.4-5.2-9.5c-0.1-0.2-0.1-0.5,0-0.7 c0.1-0.3,0.2-0.5,0.4-0.7c0.2-0.3,0.4-0.5,0.6-0.8c-2.2,0.4-4.4,0.7-6.7,1c0.2,0.2,0.4,0.4,0.6,0.5c0.1,0.2,0.3,0.3,0.4,0.5 c0.1,0.2,0.2,0.3,0.2,0.5c0,5.4-0.1,10.7-0.1,16.1c0,0.3-0.1,0.5-0.2,0.7c-0.1,0.2-0.3,0.4-0.4,0.6c-0.2,0.2-0.4,0.4-0.6,0.6 c2,0,4,0,6.1,0c-0.2-0.2-0.4-0.3-0.6-0.6c-0.1-0.2-0.3-0.4-0.4-0.6c-0.1-0.2-0.2-0.5-0.2-0.8c0-3.6,0.1-7.2,0.1-10.7 c1.8,3.2,3.6,6.6,5.5,10.2c0.1,0.4,0.2,0.7,0.1,1c-0.1,0.3-0.2,0.6-0.4,0.8c-0.2,0.3-0.4,0.5-0.7,0.7c2.1,0,4.2,0,6.3,0 c-0.2-0.2-0.4-0.4-0.6-0.7c-0.1-0.2-0.3-0.4-0.4-0.7c-0.1-0.2-0.2-0.5-0.2-0.8c0-6,0.1-12.1,0.1-18.1 C-1444.8,61.2-1444.8,61-1444.7,60.7z"/><path d="M-1436.7,80.2c-0.1-0.3-0.2-0.6-0.2-0.9c0-6.5,0-13,0-19.5c0-0.3,0.1-0.6,0.2-0.9c0.1-0.3,0.2-0.6,0.4-0.8 c0.2-0.3,0.4-0.6,0.6-0.8c-2,0.6-4,1.1-6,1.6c0.2,0.2,0.4,0.3,0.5,0.6c0.1,0.2,0.3,0.4,0.4,0.6c0.1,0.2,0.2,0.5,0.2,0.7 c0,6.2,0,12.5-0.1,18.7c0,0.3-0.1,0.6-0.2,0.8c-0.1,0.3-0.3,0.5-0.4,0.7c-0.2,0.3-0.4,0.5-0.6,0.7c2,0,4.1,0,6.1,0 c-0.2-0.2-0.4-0.4-0.6-0.7C-1436.5,80.7-1436.6,80.4-1436.7,80.2z"/><path d="M-1481.8-22.6c-21.5,0-39,17.5-39,39c0,21.5,17.5,39,39,39c21.5,0,39-17.5,39-39C-1442.9-5.1-1460.3-22.6-1481.8-22.6z M-1495,28c0.7-0.8,2.8-2.7,4.8-3.6c1.3-0.6,1.5-0.2,1.5,0.6l10.4-7l0.9,1.3l-11.2,7.5c0,0,0,0-0.1,1c-0.2,1.8-2.8,3.2-5.7,3.9 C-1494.9,31.9-1495.8,28.8-1495,28z M-1468.2,39.3h-4.7c0,0.4,0.1,1.4-0.3,1.4c-2.5-0.1-4.6,0.6-5.3,0.7c-0.8,0.2-1.9-0.5-3-1 c-1.1-0.5-2.3-0.2-2-1.1h-7.3c-0.4,0-0.7-0.3-0.7-0.7V38c0-0.4,0.3-0.7,0.7-0.7h1.2c0.4-4.9,4.2-8.9,9.1-9.4 c-0.3-0.3-0.4-0.6-0.4-1c0-0.8,0.7-1.5,1.5-1.5s1.5,0.7,1.5,1.5c0,0.4-0.2,0.8-0.4,1c4.9,0.5,8.7,4.5,9.1,9.4h1.2 c0.4,0,0.7,0.3,0.7,0.7v0.6C-1467.4,38.9-1467.8,39.3-1468.2,39.3z M-1477.3,17.4l1.6-1l0.9,1.3l-1.6,1.1L-1477.3,17.4z M-1467.5,49.3c0-1.1-0.1-3.2-0.1-3.2s4.6-1.9,5.1-3.6c4.2-15.2-2.6-26.6-2.6-26.6c-2.8-3.1-11.9-2.3-12.4-6l1.4-2.8 c0,0,2.4-4.1,1.9-5.6c-0.2-0.5-1,0-1,0v-1.9c3-0.2,3.2-2,3.2-2.2c-0.1-0.3-0.2-0.5-0.3-0.8c-0.3-0.4-0.8-0.6-1.3-0.7 c-1.5-0.2-3.1,0.4-4.5,0.6c-2.2,0.4-4.7,0.5-7,0.2c-1.6-0.2-3.2-0.8-4.8-0.8c-0.6,0-1.3,0-1.8,0.4c-0.2,0.2-0.4,0.5-0.5,0.8 c0,0.1,0.3,2,3.1,2.4v1.9c0,0-0.8-0.5-1,0c-0.5,1.5,1.9,5.6,1.9,5.6l1.4,2.8c-0.5,4-11.2,2.7-13,6.9c-2.3,5.3-6.6,20.1-1.3,21.7 c1.7,0.5,2.6-1.4,2.7-0.4c0.4,3.3,0.3,6-0.6,9.8c-11.2-6.1-18.8-18-18.8-31.6c0-19.8,16.1-36,36-36c19.8,0,36,16.1,36,36 C-1445.8,31.1-1454.8,43.8-1467.5,49.3z"/><polygon points="-1464 -10.4 -1464.8 -8.7 -1466.7 -8.5 -1465.3 -7.2 -1465.6 -5.3 -1464 -6.2 -1462.3 -5.3 -1462.6 -7.2 -1461.3 -8.5 -1463.2 -8.7"/><polygon points="-1456.5 1.9 -1456.7 3.1 -1455.6 2.6 -1454.5 3.1 -1454.7 1.9 -1453.8 1 -1455 .8 -1455.6 -.3 -1456.1 .8 -1457.4 1"/><polygon points="-1501.3 -5 -1499.9 -4.2 -1500.2 -5.8 -1499 -7 -1500.6 -7.2 -1501.3 -8.7 -1502 -7.2 -1503.7 -7 -1502.5 -5.8 -1502.8 -4.2"/><polygon points="-1509.8 21 -1510.6 19.4 -1511.4 21 -1513.1 21.2 -1511.9 22.5 -1512.2 24.2 -1510.6 23.4 -1509.1 24.2 -1509.4 22.5 -1508.1 21.2"/><polygon points="-1452.6 25.5 -1453.4 24 -1454.1 25.5 -1455.8 25.7 -1454.6 26.9 -1454.9 28.5 -1453.4 27.8 -1451.9 28.5 -1452.2 26.9 -1451 25.7"/><polygon points="-1510.8 5.9 -1511.7 7.7 -1513.7 8 -1512.3 9.5 -1512.6 11.5 -1510.8 10.6 -1508.9 11.5 -1509.3 9.5 -1507.8 8 -1509.8 7.7"/><polygon points="-1454.8 12.4 -1457.3 12.7 -1455.5 14.5 -1455.9 16.9 -1453.8 15.7 -1451.6 16.9 -1452 14.5 -1450.2 12.7 -1452.7 12.4 -1453.8 10.2"/><polygon points="-1463.5 4.9 -1464.4 3.2 -1465.2 4.9 -1467.2 5.2 -1465.8 6.6 -1466.1 8.6 -1464.4 7.6 -1462.6 8.6 -1462.9 6.6 -1461.5 5.2"/><polygon points="-1498.2 4.2 -1499 2.7 -1499.7 4.2 -1501.3 4.5 -1500.1 5.6 -1500.4 7.3 -1499 6.5 -1497.5 7.3 -1497.8 5.6 -1496.6 4.5"/><path d="M-1477.1-16.4c-1.7-0.2-3.4-0.3-5.1-0.3c-0.8,0-1.6,0-2.4,0.1c-1.1,0-2.2,0.1-3.3,0.3c-0.7,0.1-1.5,0.2-2.1,0.5 c-0.1,0.1-0.4,0.2-0.3,0.4l1.1,10c2.4,0.6,4.8,1,7.2,1c1.9,0,3.9-0.4,5.8-0.8c0.3-0.1,0.5-0.1,0.8-0.2l1.1-10 C-1474.2-16.2-1476.7-16.3-1477.1-16.4z"/></g><g><path d="M-1928.7,58c0.1,0.2,0.3,0.5,0.4,0.8c0.1,0.3,0.2,0.5,0.2,0.7c0,6.6,0,13.2,0,19.8c0,0.3-0.1,0.5-0.2,0.8 c-0.1,0.3-0.3,0.5-0.4,0.8c-0.2,0.3-0.4,0.5-0.6,0.8c2,0,4,0,6,0c-0.2-0.2-0.4-0.4-0.6-0.7c-0.1-0.2-0.3-0.5-0.4-0.7 c-0.1-0.3-0.2-0.5-0.2-0.8c0-2.4,0-4.8,0-7.2c1.2,0.1,2.4,0.2,3.6,0.4c0,0,0,0,0,0c0.3,0,0.5,0.1,0.8,0.2c0.2,0.1,0.5,0.3,0.7,0.4 c0.2,0.2,0.4,0.4,0.6,0.5c0-1.8,0-3.6,0-5.4c-0.2,0.2-0.5,0.3-0.7,0.4c-0.2,0.1-0.4,0.2-0.7,0.3c-0.2,0.1-0.5,0.1-0.7,0.1 c0,0,0,0,0,0c-1.2-0.2-2.4-0.3-3.6-0.5c0-2.2,0-4.4,0-6.6c1.6,0.3,3.1,0.7,4.7,1c0.3,0.1,0.7,0.2,1,0.4c0.3,0.2,0.6,0.4,0.9,0.6 c0.3,0.2,0.6,0.5,0.9,0.8c0-4.3,0,0,0-4.3c-3.8-0.8-8.6-2.2-12.3-3.2C-1929,57.4-1928.9,57.7-1928.7,58z" class="st0"/><path d="M-1903,65.1c-0.3-0.6-0.7-1.1-1.3-1.6c-0.5-0.5-1.2-0.9-1.9-1.3c-0.7-0.3-1.5-0.6-2.3-0.7 c-0.4-0.1-0.8-0.1-1.1-0.2c-0.8-0.1-1.6-0.1-2.3,0c-0.7,0.1-1.3,0.4-1.9,0.8c-0.5,0.4-1,0.8-1.3,1.4c-0.3,0.6-0.5,1.2-0.4,1.9 c0,3.8,0.1,7.6,0.1,11.3c0,0.7,0.2,1.4,0.5,2c0.3,0.6,0.7,1.2,1.3,1.6c0.5,0.5,1.2,0.8,1.9,1.1c0.7,0.3,1.5,0.4,2.3,0.4 c0.4,0,0.7,0,1.1,0c0.8,0,1.6-0.1,2.3-0.4c0.7-0.2,1.3-0.6,1.9-1c0.5-0.4,1-0.9,1.3-1.5c0.3-0.5,0.5-1.1,0.4-1.8 c0-3.4-0.1-6.8-0.1-10.3C-1902.6,66.3-1902.7,65.7-1903,65.1z M-1906.9,78.1c-0.4,0.4-0.9,0.6-1.4,0.5c-0.4,0-0.7,0-1.1,0 c-0.6,0-1.1-0.2-1.4-0.7c-0.4-0.4-0.6-0.9-0.6-1.3c0-3.5-0.1-7.1-0.1-10.6c0-0.5,0.2-0.9,0.6-1.2c0.4-0.3,0.9-0.5,1.4-0.4 c0.4,0.1,0.8,0.1,1.2,0.2c0.5,0.1,1,0.3,1.4,0.8c0.4,0.4,0.6,0.9,0.6,1.3c0,3.4,0,6.8,0.1,10.2 C-1906.4,77.3-1906.6,77.7-1906.9,78.1z" class="st0"/><path d="M-1887.7,66.1c-0.3-0.5-0.7-1-1.3-1.4c-0.5-0.4-1.2-0.8-1.9-1c-0.7-0.3-1.5-0.4-2.3-0.5c-0.4,0-0.8,0-1.2-0.1 c-0.8-0.1-1.6,0-2.3,0.2c-0.7,0.2-1.3,0.4-1.9,0.8c-0.5,0.4-1,0.8-1.3,1.3c-0.3,0.5-0.5,1.1-0.5,1.7c0,3.4,0.1,6.7,0.1,10.1 c0,0.6,0.2,1.2,0.5,1.8c0.3,0.6,0.7,1,1.3,1.4c0.5,0.4,1.2,0.7,1.9,1c0.7,0.2,1.5,0.4,2.3,0.4c0.4,0,0.7,0,1.1,0 c0.8,0,1.6-0.1,2.3-0.3c0.7-0.2,1.3-0.5,1.9-0.9c0.5-0.4,1-0.9,1.3-1.4c0.3-0.5,0.5-1.1,0.5-1.7c0-3.2,0-6.5,0-9.7 C-1887.2,67.1-1887.4,66.6-1887.7,66.1z M-1891.7,78.4c-0.4,0.4-0.9,0.5-1.4,0.5c-0.4,0-0.7,0-1.1,0c-0.6,0-1.1-0.2-1.4-0.6 c-0.4-0.4-0.6-0.8-0.6-1.2c0-3.2,0-6.4-0.1-9.6c0-0.4,0.2-0.8,0.6-1.1c0.4-0.3,0.9-0.5,1.4-0.5c0.4,0,0.8,0,1.2,0.1 c0.5,0,1,0.2,1.4,0.6c0.4,0.4,0.6,0.8,0.6,1.2c0,3.1,0,6.3,0,9.4C-1891.1,77.6-1891.3,78-1891.7,78.4z" class="st0"/><path d="M-1873.2,64.7c-0.5-0.4-1.1-0.6-1.9-0.8c-0.7-0.2-1.5-0.3-2.3-0.2c-2.5,0.1-5,0.1-7.5,0.1 c0.2,0.3,0.4,0.5,0.6,0.8c0.1,0.2,0.3,0.4,0.4,0.7c0.1,0.2,0.2,0.4,0.2,0.6c0,4.6,0,9.2,0,13.9c0,0.3-0.1,0.5-0.2,0.7 c-0.1,0.2-0.3,0.5-0.4,0.7c-0.2,0.3-0.4,0.5-0.6,0.7c2.5,0,5,0,7.4,0c0.8,0,1.6-0.1,2.3-0.3c0.7-0.2,1.3-0.5,1.8-0.9 c0.5-0.4,0.9-0.9,1.2-1.4c0.3-0.5,0.5-1.1,0.5-1.7c0-3.2,0-6.4,0.1-9.6c0-0.6-0.1-1.2-0.5-1.7 C-1872.3,65.5-1872.7,65.1-1873.2,64.7z M-1875.4,77.4c0,0.4-0.2,0.8-0.6,1c-0.4,0.3-0.8,0.4-1.4,0.4c-0.9,0-1.7,0-2.6,0 c0-4.1,0-8.2,0-12.4c0.9,0,1.7,0,2.6-0.1c0.5,0,1,0.1,1.4,0.4c0.4,0.3,0.6,0.6,0.6,1C-1875.4,71-1875.4,74.2-1875.4,77.4z" class="st0"/><path d="M-1863.9,63.6c0.1-0.2,0.2-0.4,0.4-0.6c0.2-0.2,0.4-0.4,0.6-0.6c-2.1,0.3-4.1,0.5-6.2,0.6 c0.2,0.2,0.4,0.3,0.6,0.5c0.1,0.2,0.3,0.3,0.4,0.5c0.1,0.2,0.2,0.4,0.2,0.6c0,5-0.1,10.1-0.1,15.1c0,0.2-0.1,0.5-0.2,0.7 c-0.1,0.2-0.3,0.4-0.4,0.6c-0.2,0.2-0.4,0.4-0.6,0.6c2,0,4.1,0,6.1,0c-0.2-0.2-0.4-0.3-0.6-0.6c-0.1-0.2-0.3-0.4-0.4-0.6 c-0.1-0.2-0.2-0.5-0.2-0.8c0-5.2,0.1-10.3,0.1-15.5C-1864.1,64-1864,63.8-1863.9,63.6z" class="st0"/><path d="M-1846,60.7c0.1-0.2,0.3-0.5,0.4-0.7c0.2-0.3,0.4-0.5,0.6-0.8c-2,0.5-4,0.9-6,1.3c0.2,0.1,0.4,0.3,0.6,0.5 c0.1,0.1,0.3,0.3,0.4,0.5c0.1,0.2,0.2,0.4,0.2,0.6c0,3.6-0.1,7.1-0.1,10.7c-1.7-3.3-3.5-6.4-5.2-9.5c-0.1-0.2-0.1-0.5,0-0.7 c0.1-0.3,0.2-0.5,0.4-0.7c0.2-0.3,0.4-0.5,0.6-0.8c-2.2,0.4-4.4,0.7-6.7,1c0.2,0.2,0.4,0.4,0.6,0.5c0.1,0.2,0.3,0.3,0.4,0.5 c0.1,0.2,0.2,0.3,0.2,0.5c0,5.4-0.1,10.7-0.1,16.1c0,0.3-0.1,0.5-0.2,0.7c-0.1,0.2-0.3,0.4-0.4,0.6c-0.2,0.2-0.4,0.4-0.6,0.6 c2,0,4,0,6.1,0c-0.2-0.2-0.4-0.3-0.6-0.6c-0.1-0.2-0.3-0.4-0.4-0.6c-0.1-0.2-0.2-0.5-0.2-0.8c0-3.6,0.1-7.2,0.1-10.7 c1.8,3.2,3.6,6.6,5.5,10.2c0.1,0.4,0.2,0.7,0.1,1c-0.1,0.3-0.2,0.6-0.4,0.8c-0.2,0.3-0.4,0.5-0.7,0.7c2.1,0,4.2,0,6.3,0 c-0.2-0.2-0.4-0.4-0.6-0.7c-0.1-0.2-0.3-0.4-0.4-0.7c-0.1-0.2-0.2-0.5-0.2-0.8c0-6,0.1-12.1,0.1-18.1 C-1846.2,61.2-1846.1,61-1846,60.7z" class="st0"/><path d="M-1838,80.2c-0.1-0.3-0.2-0.6-0.2-0.9c0-6.5,0-13,0-19.5c0-0.3,0.1-0.6,0.2-0.9c0.1-0.3,0.2-0.6,0.4-0.8 c0.2-0.3,0.4-0.6,0.6-0.8c-2,0.6-4,1.1-6,1.6c0.2,0.2,0.4,0.3,0.5,0.6c0.1,0.2,0.3,0.4,0.4,0.6c0.1,0.2,0.2,0.5,0.2,0.7 c0,6.2,0,12.5-0.1,18.7c0,0.3-0.1,0.6-0.2,0.8c-0.1,0.3-0.3,0.5-0.4,0.7c-0.2,0.3-0.4,0.5-0.6,0.7c2,0,4.1,0,6.1,0 c-0.2-0.2-0.4-0.4-0.6-0.7C-1837.8,80.7-1837.9,80.4-1838,80.2z" class="st0"/><path d="M-1883.1-22.6c-21.5,0-39,17.5-39,39c0,21.5,17.5,39,39,39c21.5,0,39-17.5,39-39 C-1844.2-5.1-1861.7-22.6-1883.1-22.6z M-1896.4,28c0.7-0.8,2.8-2.7,4.8-3.6c1.3-0.6,1.5-0.2,1.5,0.6l10.4-7l0.9,1.3l-11.2,7.5 c0,0,0,0-0.1,1c-0.2,1.8-2.8,3.2-5.7,3.9C-1896.3,31.9-1897.1,28.8-1896.4,28z M-1869.5,39.3h-4.7c0,0.4,0.1,1.4-0.3,1.4 c-2.5-0.1-4.6,0.6-5.3,0.7c-0.8,0.2-1.9-0.5-3-1c-1.1-0.5-2.3-0.2-2-1.1h-7.3c-0.4,0-0.7-0.3-0.7-0.7V38c0-0.4,0.3-0.7,0.7-0.7h1.2 c0.4-4.9,4.2-8.9,9.1-9.4c-0.3-0.3-0.4-0.6-0.4-1c0-0.8,0.7-1.5,1.5-1.5s1.5,0.7,1.5,1.5c0,0.4-0.2,0.8-0.4,1 c4.9,0.5,8.7,4.5,9.1,9.4h1.2c0.4,0,0.7,0.3,0.7,0.7v0.6C-1868.8,38.9-1869.1,39.3-1869.5,39.3z M-1878.6,17.4l1.6-1l0.9,1.3 l-1.6,1.1L-1878.6,17.4z M-1868.8,49.3c0-1.1-0.1-3.2-0.1-3.2s4.6-1.9,5.1-3.6c4.2-15.2-2.6-26.6-2.6-26.6 c-2.8-3.1-11.9-2.3-12.4-6l1.4-2.8c0,0,2.4-4.1,1.9-5.6c-0.2-0.5-1,0-1,0v-1.9c3-0.2,3.2-2,3.2-2.2c-0.1-0.3-0.2-0.5-0.3-0.8 c-0.3-0.4-0.8-0.6-1.3-0.7c-1.5-0.2-3.1,0.4-4.5,0.6c-2.2,0.4-4.7,0.5-7,0.2c-1.6-0.2-3.2-0.8-4.8-0.8c-0.6,0-1.3,0-1.8,0.4 c-0.2,0.2-0.4,0.5-0.5,0.8c0,0.1,0.3,2,3.1,2.4v1.9c0,0-0.8-0.5-1,0c-0.5,1.5,1.9,5.6,1.9,5.6l1.4,2.8c-0.5,4-11.2,2.7-13,6.9 c-2.3,5.3-6.6,20.1-1.3,21.7c1.7,0.5,2.6-1.4,2.7-0.4c0.4,3.3,0.3,6-0.6,9.8c-11.2-6.1-18.8-18-18.8-31.6c0-19.8,16.1-36,36-36 c19.8,0,36,16.1,36,36C-1847.1,31.1-1856.1,43.8-1868.8,49.3z" class="st0"/><polygon points="-1865.3 -10.4 -1866.1 -8.7 -1868 -8.5 -1866.6 -7.2 -1866.9 -5.3 -1865.3 -6.2 -1863.6 -5.3 -1864 -7.2 -1862.6 -8.5 -1864.5 -8.7" class="st0"/><polygon points="-1857.8 1.9 -1858 3.1 -1856.9 2.6 -1855.8 3.1 -1856 1.9 -1855.1 1 -1856.3 .8 -1856.9 -.3 -1857.4 .8 -1858.7 1" class="st0"/><polygon points="-1902.6 -5 -1901.2 -4.2 -1901.5 -5.8 -1900.3 -7 -1901.9 -7.2 -1902.6 -8.7 -1903.4 -7.2 -1905 -7 -1903.8 -5.8 -1904.1 -4.2" class="st0"/><polygon points="-1911.1 21 -1911.9 19.4 -1912.7 21 -1914.4 21.2 -1913.2 22.5 -1913.5 24.2 -1911.9 23.4 -1910.4 24.2 -1910.7 22.5 -1909.4 21.2" class="st0"/><polygon points="-1853.9 25.5 -1854.7 24 -1855.4 25.5 -1857.1 25.7 -1855.9 26.9 -1856.2 28.5 -1854.7 27.8 -1853.2 28.5 -1853.5 26.9 -1852.3 25.7" class="st0"/><polygon points="-1912.1 5.9 -1913 7.7 -1915.1 8 -1913.6 9.5 -1913.9 11.5 -1912.1 10.6 -1910.2 11.5 -1910.6 9.5 -1909.1 8 -1911.2 7.7" class="st0"/><polygon points="-1856.2 12.4 -1858.6 12.7 -1856.8 14.5 -1857.2 16.9 -1855.1 15.7 -1852.9 16.9 -1853.3 14.5 -1851.6 12.7 -1854 12.4 -1855.1 10.2" class="st0"/><polygon points="-1864.8 4.9 -1865.7 3.2 -1866.6 4.9 -1868.5 5.2 -1867.1 6.6 -1867.4 8.6 -1865.7 7.6 -1863.9 8.6 -1864.3 6.6 -1862.8 5.2" class="st0"/><polygon points="-1899.5 4.2 -1900.3 2.7 -1901 4.2 -1902.6 4.5 -1901.5 5.6 -1901.7 7.3 -1900.3 6.5 -1898.8 7.3 -1899.1 5.6 -1897.9 4.5" class="st0"/><path d="M-1878.4-16.4c-1.7-0.2-3.4-0.3-5.1-0.3c-0.8,0-1.6,0-2.4,0.1c-1.1,0-2.2,0.1-3.3,0.3 c-0.7,0.1-1.5,0.2-2.1,0.5c-0.1,0.1-0.4,0.2-0.3,0.4l1.1,10c2.4,0.6,4.8,1,7.2,1c1.9,0,3.9-0.4,5.8-0.8c0.3-0.1,0.5-0.1,0.8-0.2 l1.1-10C-1875.5-16.2-1878-16.3-1878.4-16.4z" class="st0"/></g><g><path d="M-1699.1,339.6c-0.1-0.9-1,0.9-2.7,0.4c-5.3-1.6-1-16.4,1.3-21.7c1.7-4.2,12.5-2.8,13-6.9l-1.4-2.8 c0,0-2.4-4.1-1.9-5.6c0.2-0.5,1,0,1,0v-1.9c-2.8-0.4-3.2-2.2-3.1-2.4c0.1-0.3,0.3-0.6,0.5-0.8c0.5-0.4,1.2-0.5,1.8-0.4 c1.6,0.1,3.2,0.6,4.8,0.8c2.3,0.3,4.8,0.3,7-0.2c1.4-0.3,3-0.8,4.5-0.6c0.5,0.1,1,0.2,1.3,0.7c0.2,0.2,0.3,0.5,0.3,0.8 c0,0.1-0.2,2-3.2,2.2v1.9c0,0,0.8-0.5,1,0c0.5,1.5-1.9,5.6-1.9,5.6l-1.4,2.8c0.4,3.7,9.6,2.9,12.4,6c0,0,6.8,11.5,2.6,26.6 c-0.5,1.7-5.1,3.6-5.1,3.6s0.1,2.1,0.1,3.2c12.7-5.6,21.7-18.3,21.7-33c0-19.8-16.1-36-36-36c-19.8,0-36,16.1-36,36 c0,13.6,7.6,25.5,18.8,31.6C-1698.8,345.6-1698.7,342.9-1699.1,339.6z M-1652.5,330l-1.5-0.8l-1.5,0.8l0.3-1.7l-1.2-1.2l1.7-0.2 l0.7-1.5l0.7,1.5l1.7,0.2l-1.2,1.2L-1652.5,330z M-1650.9,314.2l-1.8,1.7l0.4,2.4l-2.2-1.1l-2.2,1.1l0.4-2.4l-1.8-1.7l2.4-0.4 l1.1-2.2l1.1,2.2L-1650.9,314.2z M-1656.8,302.3l0.6-1.1l0.6,1.1l1.3,0.2l-0.9,0.9l0.2,1.2l-1.1-0.6l-1.1,0.6l0.2-1.2l-0.9-0.9 L-1656.8,302.3z M-1665.5,292.7l0.8-1.7l0.8,1.7l1.8,0.3l-1.3,1.3l0.3,1.8l-1.7-0.9l-1.7,0.9l0.3-1.8l-1.3-1.3L-1665.5,292.7z M-1665.9,306.4l0.9-1.8l0.9,1.8l2,0.3l-1.4,1.4l0.3,2l-1.8-0.9l-1.8,0.9l0.3-2l-1.4-1.4L-1665.9,306.4z M-1690.5,285.6 c0.6-0.3,1.4-0.4,2.1-0.5c1.1-0.1,2.2-0.2,3.3-0.3c0.8,0,1.6-0.1,2.4-0.1c1.7,0,3.4,0.1,5.1,0.3c0.4,0,2.9,0.2,2.8,0.9l-1.1,10 c-0.3,0.1-0.5,0.1-0.8,0.2c-1.9,0.4-3.8,0.8-5.8,0.8c-2.4,0-4.9-0.4-7.2-1l-1.1-10C-1690.9,285.8-1690.7,285.7-1690.5,285.6z M-1709.7,325.6l-1.6-0.8l-1.6,0.8l0.3-1.7l-1.3-1.2l1.7-0.3l0.8-1.6l0.8,1.6l1.7,0.3l-1.3,1.2L-1709.7,325.6z M-1709.9,310.9 l0.4,2.1l-1.8-1l-1.8,1l0.4-2.1l-1.5-1.5l2.1-0.3l0.9-1.9l0.9,1.9l2.1,0.3L-1709.9,310.9z M-1698.9,305.7l1.6,0.2l-1.2,1.2l0.3,1.6 l-1.5-0.8l-1.5,0.8l0.3-1.6l-1.2-1.2l1.6-0.2l0.7-1.5L-1698.9,305.7z M-1702.7,294.2l0.7-1.5l0.7,1.5l1.6,0.2l-1.2,1.1l0.3,1.6 l-1.4-0.8l-1.4,0.8l0.3-1.6l-1.2-1.1L-1702.7,294.2z" class="st1"/><polygon points="-1677.1 320.1 -1675.5 319.1 -1676.4 317.8 -1677.9 318.8" class="st1"/><path d="M-1689.4,326.4c0-0.8-0.3-1.2-1.5-0.6c-1.9,0.9-4,2.7-4.8,3.6c-0.7,0.8,0.1,3.9,0.6,3.8c2.9-0.6,5.5-2,5.7-3.9 c0.1-1,0.1-1,0.1-1l11.2-7.5l-0.9-1.3L-1689.4,326.4z" class="st1"/><path d="M-1668.1,340v-0.6c0-0.4-0.3-0.7-0.7-0.7h-1.2c-0.4-4.9-4.2-8.9-9.1-9.4c0.3-0.3,0.4-0.6,0.4-1 c0-0.8-0.7-1.5-1.5-1.5s-1.5,0.7-1.5,1.5c0,0.4,0.2,0.8,0.4,1c-4.9,0.5-8.7,4.5-9.1,9.4h-1.2c-0.4,0-0.7,0.3-0.7,0.7v0.6 c0,0.4,0.3,0.7,0.7,0.7h7.3c-0.3,0.9,0.9,0.7,2,1.1c1.1,0.5,2.2,1.1,3,1c0.7-0.1,2.8-0.8,5.3-0.7c0.5,0,0.3-1,0.3-1.4h4.7 C-1668.4,340.7-1668.1,340.4-1668.1,340z" class="st1"/><path d="M-1728,359.4c0.1,0.2,0.3,0.5,0.4,0.8c0.1,0.3,0.2,0.5,0.2,0.7c0,6.6,0,13.2,0,19.8c0,0.3-0.1,0.5-0.2,0.8 c-0.1,0.3-0.3,0.5-0.4,0.8c-0.2,0.3-0.4,0.5-0.6,0.8c2,0,4,0,6,0c-0.2-0.2-0.4-0.4-0.6-0.7c-0.1-0.2-0.3-0.5-0.4-0.7 c-0.1-0.3-0.2-0.5-0.2-0.8c0-2.4,0-4.8,0-7.2c1.2,0.1,2.4,0.2,3.6,0.4c0,0,0,0,0,0c0.3,0,0.5,0.1,0.8,0.2c0.2,0.1,0.5,0.3,0.7,0.4 c0.2,0.2,0.4,0.4,0.6,0.5c0-1.8,0-3.6,0-5.4c-0.2,0.2-0.5,0.3-0.7,0.4c-0.2,0.1-0.4,0.2-0.7,0.3c-0.2,0.1-0.5,0.1-0.7,0.1 c0,0,0,0,0,0c-1.2-0.2-2.4-0.3-3.6-0.5c0-2.2,0-4.4,0-6.6c1.6,0.3,3.1,0.7,4.7,1c0.3,0.1,0.7,0.2,1,0.4c0.3,0.2,0.6,0.4,0.9,0.6 c0.3,0.2,0.6,0.5,0.9,0.8c0-4.3,0,0,0-4.3c-3.8-0.8-8.6-2.2-12.3-3.2C-1728.4,358.9-1728.2,359.1-1728,359.4z" class="st1"/><path d="M-1702.4,366.5c-0.3-0.6-0.7-1.1-1.3-1.6c-0.5-0.5-1.2-0.9-1.9-1.3c-0.7-0.3-1.5-0.6-2.3-0.7 c-0.4-0.1-0.8-0.1-1.1-0.2c-0.8-0.1-1.6-0.1-2.3,0c-0.7,0.1-1.3,0.4-1.9,0.8c-0.5,0.4-1,0.8-1.3,1.4c-0.3,0.6-0.5,1.2-0.4,1.9 c0,3.8,0.1,7.6,0.1,11.3c0,0.7,0.2,1.4,0.5,2c0.3,0.6,0.7,1.2,1.3,1.6c0.5,0.5,1.2,0.8,1.9,1.1c0.7,0.3,1.5,0.4,2.3,0.4 c0.4,0,0.7,0,1.1,0c0.8,0,1.6-0.1,2.3-0.4c0.7-0.2,1.3-0.6,1.9-1c0.5-0.4,1-0.9,1.3-1.5c0.3-0.5,0.5-1.1,0.4-1.8 c0-3.4-0.1-6.8-0.1-10.3C-1701.9,367.7-1702.1,367.1-1702.4,366.5z M-1706.3,379.5c-0.4,0.4-0.9,0.6-1.4,0.5c-0.4,0-0.7,0-1.1,0 c-0.6,0-1.1-0.2-1.4-0.7c-0.4-0.4-0.6-0.9-0.6-1.3c0-3.5-0.1-7.1-0.1-10.6c0-0.5,0.2-0.9,0.6-1.2c0.4-0.3,0.9-0.5,1.4-0.4 c0.4,0.1,0.8,0.1,1.2,0.2c0.5,0.1,1,0.3,1.4,0.8c0.4,0.4,0.6,0.9,0.6,1.3c0,3.4,0,6.8,0.1,10.2 C-1705.7,378.7-1705.9,379.1-1706.3,379.5z" class="st1"/><path d="M-1687,367.5c-0.3-0.5-0.7-1-1.3-1.4c-0.5-0.4-1.2-0.8-1.9-1c-0.7-0.3-1.5-0.4-2.3-0.5c-0.4,0-0.8,0-1.2-0.1 c-0.8-0.1-1.6,0-2.3,0.2c-0.7,0.2-1.3,0.4-1.9,0.8c-0.5,0.4-1,0.8-1.3,1.3c-0.3,0.5-0.5,1.1-0.5,1.7c0,3.4,0.1,6.7,0.1,10.1 c0,0.6,0.2,1.2,0.5,1.8c0.3,0.6,0.7,1,1.3,1.4c0.5,0.4,1.2,0.7,1.9,1c0.7,0.2,1.5,0.4,2.3,0.4c0.4,0,0.7,0,1.1,0 c0.8,0,1.6-0.1,2.3-0.3c0.7-0.2,1.3-0.5,1.9-0.9c0.5-0.4,1-0.9,1.3-1.4c0.3-0.5,0.5-1.1,0.5-1.7c0-3.2,0-6.5,0-9.7 C-1686.6,368.6-1686.7,368-1687,367.5z M-1691,379.8c-0.4,0.4-0.9,0.5-1.4,0.5c-0.4,0-0.7,0-1.1,0c-0.6,0-1.1-0.2-1.4-0.6 c-0.4-0.4-0.6-0.8-0.6-1.2c0-3.2,0-6.4-0.1-9.6c0-0.4,0.2-0.8,0.6-1.1c0.4-0.3,0.9-0.5,1.4-0.5c0.4,0,0.8,0,1.2,0.1 c0.5,0,1,0.2,1.4,0.6c0.4,0.4,0.6,0.8,0.6,1.2c0,3.1,0,6.3,0,9.4C-1690.4,379.1-1690.6,379.4-1691,379.8z" class="st1"/><path d="M-1672.5,366.1c-0.5-0.4-1.1-0.6-1.9-0.8c-0.7-0.2-1.5-0.3-2.3-0.2c-2.5,0.1-5,0.1-7.5,0.1 c0.2,0.3,0.4,0.5,0.6,0.8c0.1,0.2,0.3,0.4,0.4,0.7c0.1,0.2,0.2,0.4,0.2,0.6c0,4.6,0,9.2,0,13.9c0,0.3-0.1,0.5-0.2,0.7 c-0.1,0.2-0.3,0.5-0.4,0.7c-0.2,0.3-0.4,0.5-0.6,0.7c2.5,0,5,0,7.4,0c0.8,0,1.6-0.1,2.3-0.3c0.7-0.2,1.3-0.5,1.8-0.9 c0.5-0.4,0.9-0.9,1.2-1.4c0.3-0.5,0.5-1.1,0.5-1.7c0-3.2,0-6.4,0.1-9.6c0-0.6-0.1-1.2-0.5-1.7 C-1671.6,366.9-1672,366.5-1672.5,366.1z M-1674.8,378.8c0,0.4-0.2,0.8-0.6,1c-0.4,0.3-0.8,0.4-1.4,0.4c-0.9,0-1.7,0-2.6,0 c0-4.1,0-8.2,0-12.4c0.9,0,1.7,0,2.6-0.1c0.5,0,1,0.1,1.4,0.4c0.4,0.3,0.6,0.6,0.6,1C-1674.7,372.5-1674.7,375.6-1674.8,378.8z" class="st1"/><path d="M-1663.2,365c0.1-0.2,0.2-0.4,0.4-0.6c0.2-0.2,0.4-0.4,0.6-0.6c-2.1,0.3-4.1,0.5-6.2,0.6 c0.2,0.2,0.4,0.3,0.6,0.5c0.1,0.2,0.3,0.3,0.4,0.5c0.1,0.2,0.2,0.4,0.2,0.6c0,5-0.1,10.1-0.1,15.1c0,0.2-0.1,0.5-0.2,0.7 c-0.1,0.2-0.3,0.4-0.4,0.6c-0.2,0.2-0.4,0.4-0.6,0.6c2,0,4.1,0,6.1,0c-0.2-0.2-0.4-0.3-0.6-0.6c-0.1-0.2-0.3-0.4-0.4-0.6 c-0.1-0.2-0.2-0.5-0.2-0.8c0-5.2,0.1-10.3,0.1-15.5C-1663.4,365.5-1663.4,365.2-1663.2,365z" class="st1"/><path d="M-1645.3,362.1c0.1-0.2,0.3-0.5,0.4-0.7c0.2-0.3,0.4-0.5,0.6-0.8c-2,0.5-4,0.9-6,1.3c0.2,0.1,0.4,0.3,0.6,0.5 c0.1,0.1,0.3,0.3,0.4,0.5c0.1,0.2,0.2,0.4,0.2,0.6c0,3.6-0.1,7.1-0.1,10.7c-1.7-3.3-3.5-6.4-5.2-9.5c-0.1-0.2-0.1-0.5,0-0.7 c0.1-0.3,0.2-0.5,0.4-0.7c0.2-0.3,0.4-0.5,0.6-0.8c-2.2,0.4-4.4,0.7-6.7,1c0.2,0.2,0.4,0.4,0.6,0.5c0.1,0.2,0.3,0.3,0.4,0.5 c0.1,0.2,0.2,0.3,0.2,0.5c0,5.4-0.1,10.7-0.1,16.1c0,0.3-0.1,0.5-0.2,0.7c-0.1,0.2-0.3,0.4-0.4,0.6c-0.2,0.2-0.4,0.4-0.6,0.6 c2,0,4,0,6.1,0c-0.2-0.2-0.4-0.3-0.6-0.6c-0.1-0.2-0.3-0.4-0.4-0.6c-0.1-0.2-0.2-0.5-0.2-0.8c0-3.6,0.1-7.2,0.1-10.7 c1.8,3.2,3.6,6.6,5.5,10.2c0.1,0.4,0.2,0.7,0.1,1c-0.1,0.3-0.2,0.6-0.4,0.8c-0.2,0.3-0.4,0.5-0.7,0.7c2.1,0,4.2,0,6.3,0 c-0.2-0.2-0.4-0.4-0.6-0.7c-0.1-0.2-0.3-0.4-0.4-0.7c-0.1-0.2-0.2-0.5-0.2-0.8c0-6,0.1-12.1,0.1-18.1 C-1645.5,362.6-1645.4,362.4-1645.3,362.1z" class="st1"/><path d="M-1637.4,381.6c-0.1-0.3-0.2-0.6-0.2-0.9c0-6.5,0-13,0-19.5c0-0.3,0.1-0.6,0.2-0.9c0.1-0.3,0.2-0.6,0.4-0.8 c0.2-0.3,0.4-0.6,0.6-0.8c-2,0.6-4,1.1-6,1.6c0.2,0.2,0.4,0.3,0.5,0.6c0.1,0.2,0.3,0.4,0.4,0.6c0.1,0.2,0.2,0.5,0.2,0.7 c0,6.2,0,12.5-0.1,18.7c0,0.3-0.1,0.6-0.2,0.8c-0.1,0.3-0.3,0.5-0.4,0.7c-0.2,0.3-0.4,0.5-0.6,0.7c2,0,4.1,0,6.1,0 c-0.2-0.2-0.4-0.4-0.6-0.7C-1637.1,382.1-1637.3,381.9-1637.4,381.6z" class="st1"/></g><g><path d="M-1899.8,339.6c-0.1-0.9-1,0.9-2.7,0.4c-5.3-1.6-1-16.4,1.3-21.7c1.7-4.2,12.5-2.8,13-6.9l-1.4-2.8 c0,0-2.4-4.1-1.9-5.6c0.2-0.5,1,0,1,0v-1.9c-2.8-0.4-3.2-2.2-3.1-2.4c0.1-0.3,0.3-0.6,0.5-0.8c0.5-0.4,1.2-0.5,1.8-0.4 c1.6,0.1,3.2,0.6,4.8,0.8c2.3,0.3,4.8,0.3,7-0.2c1.4-0.3,3-0.8,4.5-0.6c0.5,0.1,1,0.2,1.3,0.7c0.2,0.2,0.3,0.5,0.3,0.8 c0,0.1-0.2,2-3.2,2.2v1.9c0,0,0.8-0.5,1,0c0.5,1.5-1.9,5.6-1.9,5.6l-1.4,2.8c0.4,3.7,9.6,2.9,12.4,6c0,0,6.8,11.5,2.6,26.6 c-0.5,1.7-5.1,3.6-5.1,3.6s0.1,2.1,0.1,3.2c12.7-5.6,21.7-18.3,21.7-33c0-19.8-16.1-36-36-36s-36,16.1-36,36 c0,13.6,7.6,25.5,18.8,31.6C-1899.4,345.6-1899.3,342.9-1899.8,339.6z M-1853.2,330l-1.5-0.8l-1.5,0.8l0.3-1.7l-1.2-1.2l1.7-0.2 l0.7-1.5l0.7,1.5l1.7,0.2l-1.2,1.2L-1853.2,330z M-1851.6,314.2l-1.8,1.7l0.4,2.4l-2.2-1.1l-2.2,1.1l0.4-2.4l-1.8-1.7l2.4-0.4 l1.1-2.2l1.1,2.2L-1851.6,314.2z M-1857.4,302.3l0.6-1.1l0.6,1.1l1.3,0.2l-0.9,0.9l0.2,1.2l-1.1-0.6l-1.1,0.6l0.2-1.2l-0.9-0.9 L-1857.4,302.3z M-1866.1,292.7l0.8-1.7l0.8,1.7l1.8,0.3l-1.3,1.3l0.3,1.8l-1.7-0.9l-1.7,0.9l0.3-1.8l-1.3-1.3L-1866.1,292.7z M-1866.6,306.4l0.9-1.8l0.9,1.8l2,0.3l-1.4,1.4l0.3,2l-1.8-0.9l-1.8,0.9l0.3-2l-1.4-1.4L-1866.6,306.4z M-1891.2,285.6 c0.6-0.3,1.4-0.4,2.1-0.5c1.1-0.1,2.2-0.2,3.3-0.3c0.8,0,1.6-0.1,2.4-0.1c1.7,0,3.4,0.1,5.1,0.3c0.4,0,2.9,0.2,2.8,0.9l-1.1,10 c-0.3,0.1-0.5,0.1-0.8,0.2c-1.9,0.4-3.8,0.8-5.8,0.8c-2.4,0-4.9-0.4-7.2-1l-1.1-10C-1891.5,285.8-1891.3,285.7-1891.2,285.6z M-1910.4,325.6l-1.6-0.8l-1.6,0.8l0.3-1.7l-1.3-1.2l1.7-0.3l0.8-1.6l0.8,1.6l1.7,0.3l-1.3,1.2L-1910.4,325.6z M-1910.6,310.9 l0.4,2.1l-1.8-1l-1.8,1l0.4-2.1l-1.5-1.5l2.1-0.3l0.9-1.9l0.9,1.9l2.1,0.3L-1910.6,310.9z M-1899.5,305.7l1.6,0.2l-1.2,1.2l0.3,1.6 l-1.5-0.8l-1.5,0.8l0.3-1.6l-1.2-1.2l1.6-0.2l0.7-1.5L-1899.5,305.7z M-1903.4,294.2l0.7-1.5l0.7,1.5l1.6,0.2l-1.2,1.1l0.3,1.6 l-1.4-0.8l-1.4,0.8l0.3-1.6l-1.2-1.1L-1903.4,294.2z" class="st2"/><polygon points="-1877.7 320.1 -1876.2 319.1 -1877 317.8 -1878.6 318.8" class="st2"/><path d="M-1890,326.4c0-0.8-0.3-1.2-1.5-0.6c-1.9,0.9-4,2.7-4.8,3.6c-0.7,0.8,0.1,3.9,0.6,3.8c2.9-0.6,5.5-2,5.7-3.9 c0.1-1,0.1-1,0.1-1l11.2-7.5l-0.9-1.3L-1890,326.4z" class="st2"/><path d="M-1868.8,340v-0.6c0-0.4-0.3-0.7-0.7-0.7h-1.2c-0.4-4.9-4.2-8.9-9.1-9.4c0.3-0.3,0.4-0.6,0.4-1 c0-0.8-0.7-1.5-1.5-1.5s-1.5,0.7-1.5,1.5c0,0.4,0.2,0.8,0.4,1c-4.9,0.5-8.7,4.5-9.1,9.4h-1.2c-0.4,0-0.7,0.3-0.7,0.7v0.6 c0,0.4,0.3,0.7,0.7,0.7h7.3c-0.3,0.9,0.9,0.7,2,1.1c1.1,0.5,2.2,1.1,3,1c0.7-0.1,2.8-0.8,5.3-0.7c0.5,0,0.3-1,0.3-1.4h4.7 C-1869.1,340.7-1868.8,340.4-1868.8,340z" class="st2"/><path d="M-1928.7,359.4c0.1,0.2,0.3,0.5,0.4,0.8c0.1,0.3,0.2,0.5,0.2,0.7c0,6.6,0,13.2,0,19.8c0,0.3-0.1,0.5-0.2,0.8 c-0.1,0.3-0.3,0.5-0.4,0.8c-0.2,0.3-0.4,0.5-0.6,0.8c2,0,4,0,6,0c-0.2-0.2-0.4-0.4-0.6-0.7c-0.1-0.2-0.3-0.5-0.4-0.7 c-0.1-0.3-0.2-0.5-0.2-0.8c0-2.4,0-4.8,0-7.2c1.2,0.1,2.4,0.2,3.6,0.4c0,0,0,0,0,0c0.3,0,0.5,0.1,0.8,0.2c0.2,0.1,0.5,0.3,0.7,0.4 c0.2,0.2,0.4,0.4,0.6,0.5c0-1.8,0-3.6,0-5.4c-0.2,0.2-0.5,0.3-0.7,0.4c-0.2,0.1-0.4,0.2-0.7,0.3c-0.2,0.1-0.5,0.1-0.7,0.1 c0,0,0,0,0,0c-1.2-0.2-2.4-0.3-3.6-0.5c0-2.2,0-4.4,0-6.6c1.6,0.3,3.1,0.7,4.7,1c0.3,0.1,0.7,0.2,1,0.4c0.3,0.2,0.6,0.4,0.9,0.6 c0.3,0.2,0.6,0.5,0.9,0.8c0-4.3,0,0,0-4.3c-3.8-0.8-8.6-2.2-12.3-3.2C-1929,358.9-1928.9,359.1-1928.7,359.4z" class="st2"/><path d="M-1903,366.5c-0.3-0.6-0.7-1.1-1.3-1.6c-0.5-0.5-1.2-0.9-1.9-1.3c-0.7-0.3-1.5-0.6-2.3-0.7 c-0.4-0.1-0.8-0.1-1.1-0.2c-0.8-0.1-1.6-0.1-2.3,0c-0.7,0.1-1.3,0.4-1.9,0.8c-0.5,0.4-1,0.8-1.3,1.4c-0.3,0.6-0.5,1.2-0.4,1.9 c0,3.8,0.1,7.6,0.1,11.3c0,0.7,0.2,1.4,0.5,2c0.3,0.6,0.7,1.2,1.3,1.6c0.5,0.5,1.2,0.8,1.9,1.1c0.7,0.3,1.5,0.4,2.3,0.4 c0.4,0,0.7,0,1.1,0c0.8,0,1.6-0.1,2.3-0.4c0.7-0.2,1.3-0.6,1.9-1c0.5-0.4,1-0.9,1.3-1.5c0.3-0.5,0.5-1.1,0.4-1.8 c0-3.4-0.1-6.8-0.1-10.3C-1902.6,367.7-1902.7,367.1-1903,366.5z M-1906.9,379.5c-0.4,0.4-0.9,0.6-1.4,0.5c-0.4,0-0.7,0-1.1,0 c-0.6,0-1.1-0.2-1.4-0.7c-0.4-0.4-0.6-0.9-0.6-1.3c0-3.5-0.1-7.1-0.1-10.6c0-0.5,0.2-0.9,0.6-1.2c0.4-0.3,0.9-0.5,1.4-0.4 c0.4,0.1,0.8,0.1,1.2,0.2c0.5,0.1,1,0.3,1.4,0.8c0.4,0.4,0.6,0.9,0.6,1.3c0,3.4,0,6.8,0.1,10.2 C-1906.4,378.7-1906.6,379.1-1906.9,379.5z" class="st2"/><path d="M-1887.7,367.5c-0.3-0.5-0.7-1-1.3-1.4c-0.5-0.4-1.2-0.8-1.9-1c-0.7-0.3-1.5-0.4-2.3-0.5c-0.4,0-0.8,0-1.2-0.1 c-0.8-0.1-1.6,0-2.3,0.2c-0.7,0.2-1.3,0.4-1.9,0.8c-0.5,0.4-1,0.8-1.3,1.3c-0.3,0.5-0.5,1.1-0.5,1.7c0,3.4,0.1,6.7,0.1,10.1 c0,0.6,0.2,1.2,0.5,1.8c0.3,0.6,0.7,1,1.3,1.4c0.5,0.4,1.2,0.7,1.9,1c0.7,0.2,1.5,0.4,2.3,0.4c0.4,0,0.7,0,1.1,0 c0.8,0,1.6-0.1,2.3-0.3c0.7-0.2,1.3-0.5,1.9-0.9c0.5-0.4,1-0.9,1.3-1.4c0.3-0.5,0.5-1.1,0.5-1.7c0-3.2,0-6.5,0-9.7 C-1887.2,368.6-1887.4,368-1887.7,367.5z M-1891.7,379.8c-0.4,0.4-0.9,0.5-1.4,0.5c-0.4,0-0.7,0-1.1,0c-0.6,0-1.1-0.2-1.4-0.6 c-0.4-0.4-0.6-0.8-0.6-1.2c0-3.2,0-6.4-0.1-9.6c0-0.4,0.2-0.8,0.6-1.1c0.4-0.3,0.9-0.5,1.4-0.5c0.4,0,0.8,0,1.2,0.1 c0.5,0,1,0.2,1.4,0.6c0.4,0.4,0.6,0.8,0.6,1.2c0,3.1,0,6.3,0,9.4C-1891.1,379.1-1891.3,379.4-1891.7,379.8z" class="st2"/><path d="M-1873.2,366.1c-0.5-0.4-1.1-0.6-1.9-0.8c-0.7-0.2-1.5-0.3-2.3-0.2c-2.5,0.1-5,0.1-7.5,0.1 c0.2,0.3,0.4,0.5,0.6,0.8c0.1,0.2,0.3,0.4,0.4,0.7c0.1,0.2,0.2,0.4,0.2,0.6c0,4.6,0,9.2,0,13.9c0,0.3-0.1,0.5-0.2,0.7 c-0.1,0.2-0.3,0.5-0.4,0.7c-0.2,0.3-0.4,0.5-0.6,0.7c2.5,0,5,0,7.4,0c0.8,0,1.6-0.1,2.3-0.3c0.7-0.2,1.3-0.5,1.8-0.9 c0.5-0.4,0.9-0.9,1.2-1.4c0.3-0.5,0.5-1.1,0.5-1.7c0-3.2,0-6.4,0.1-9.6c0-0.6-0.1-1.2-0.5-1.7 C-1872.3,366.9-1872.7,366.5-1873.2,366.1z M-1875.4,378.8c0,0.4-0.2,0.8-0.6,1c-0.4,0.3-0.8,0.4-1.4,0.4c-0.9,0-1.7,0-2.6,0 c0-4.1,0-8.2,0-12.4c0.9,0,1.7,0,2.6-0.1c0.5,0,1,0.1,1.4,0.4c0.4,0.3,0.6,0.6,0.6,1C-1875.4,372.5-1875.4,375.6-1875.4,378.8z" class="st2"/><path d="M-1863.9,365c0.1-0.2,0.2-0.4,0.4-0.6c0.2-0.2,0.4-0.4,0.6-0.6c-2.1,0.3-4.1,0.5-6.2,0.6 c0.2,0.2,0.4,0.3,0.6,0.5c0.1,0.2,0.3,0.3,0.4,0.5c0.1,0.2,0.2,0.4,0.2,0.6c0,5-0.1,10.1-0.1,15.1c0,0.2-0.1,0.5-0.2,0.7 c-0.1,0.2-0.3,0.4-0.4,0.6c-0.2,0.2-0.4,0.4-0.6,0.6c2,0,4.1,0,6.1,0c-0.2-0.2-0.4-0.3-0.6-0.6c-0.1-0.2-0.3-0.4-0.4-0.6 c-0.1-0.2-0.2-0.5-0.2-0.8c0-5.2,0.1-10.3,0.1-15.5C-1864.1,365.5-1864,365.2-1863.9,365z" class="st2"/><path d="M-1846,362.1c0.1-0.2,0.3-0.5,0.4-0.7c0.2-0.3,0.4-0.5,0.6-0.8c-2,0.5-4,0.9-6,1.3c0.2,0.1,0.4,0.3,0.6,0.5 c0.1,0.1,0.3,0.3,0.4,0.5c0.1,0.2,0.2,0.4,0.2,0.6c0,3.6-0.1,7.1-0.1,10.7c-1.7-3.3-3.5-6.4-5.2-9.5c-0.1-0.2-0.1-0.5,0-0.7 c0.1-0.3,0.2-0.5,0.4-0.7c0.2-0.3,0.4-0.5,0.6-0.8c-2.2,0.4-4.4,0.7-6.7,1c0.2,0.2,0.4,0.4,0.6,0.5c0.1,0.2,0.3,0.3,0.4,0.5 c0.1,0.2,0.2,0.3,0.2,0.5c0,5.4-0.1,10.7-0.1,16.1c0,0.3-0.1,0.5-0.2,0.7c-0.1,0.2-0.3,0.4-0.4,0.6c-0.2,0.2-0.4,0.4-0.6,0.6 c2,0,4,0,6.1,0c-0.2-0.2-0.4-0.3-0.6-0.6c-0.1-0.2-0.3-0.4-0.4-0.6c-0.1-0.2-0.2-0.5-0.2-0.8c0-3.6,0.1-7.2,0.1-10.7 c1.8,3.2,3.6,6.6,5.5,10.2c0.1,0.4,0.2,0.7,0.1,1c-0.1,0.3-0.2,0.6-0.4,0.8c-0.2,0.3-0.4,0.5-0.7,0.7c2.1,0,4.2,0,6.3,0 c-0.2-0.2-0.4-0.4-0.6-0.7c-0.1-0.2-0.3-0.4-0.4-0.7c-0.1-0.2-0.2-0.5-0.2-0.8c0-6,0.1-12.1,0.1-18.1 C-1846.2,362.6-1846.1,362.4-1846,362.1z" class="st2"/><path d="M-1838,381.6c-0.1-0.3-0.2-0.6-0.2-0.9c0-6.5,0-13,0-19.5c0-0.3,0.1-0.6,0.2-0.9c0.1-0.3,0.2-0.6,0.4-0.8 c0.2-0.3,0.4-0.6,0.6-0.8c-2,0.6-4,1.1-6,1.6c0.2,0.2,0.4,0.3,0.5,0.6c0.1,0.2,0.3,0.4,0.4,0.6c0.1,0.2,0.2,0.5,0.2,0.7 c0,6.2,0,12.5-0.1,18.7c0,0.3-0.1,0.6-0.2,0.8c-0.1,0.3-0.3,0.5-0.4,0.7c-0.2,0.3-0.4,0.5-0.6,0.7c2,0,4.1,0,6.1,0 c-0.2-0.2-0.4-0.4-0.6-0.7C-1837.8,382.1-1837.9,381.9-1838,381.6z" class="st2"/></g><g><path d="M-1527.4,359.4c0.1,0.2,0.3,0.5,0.4,0.8c0.1,0.3,0.2,0.5,0.2,0.7c0,6.6,0,13.2,0,19.8c0,0.3-0.1,0.5-0.2,0.8 c-0.1,0.3-0.3,0.5-0.4,0.8c-0.2,0.3-0.4,0.5-0.6,0.8c2,0,4,0,6,0c-0.2-0.2-0.4-0.4-0.6-0.7c-0.1-0.2-0.3-0.5-0.4-0.7 c-0.1-0.3-0.2-0.5-0.2-0.8c0-2.4,0-4.8,0-7.2c1.2,0.1,2.4,0.2,3.6,0.4c0,0,0,0,0,0c0.3,0,0.5,0.1,0.8,0.2c0.2,0.1,0.5,0.3,0.7,0.4 c0.2,0.2,0.4,0.4,0.6,0.5c0-1.8,0-3.6,0-5.4c-0.2,0.2-0.5,0.3-0.7,0.4c-0.2,0.1-0.4,0.2-0.7,0.3c-0.2,0.1-0.5,0.1-0.7,0.1 c0,0,0,0,0,0c-1.2-0.2-2.4-0.3-3.6-0.5c0-2.2,0-4.4,0-6.6c1.6,0.3,3.1,0.7,4.7,1c0.3,0.1,0.7,0.2,1,0.4c0.3,0.2,0.6,0.4,0.9,0.6 c0.3,0.2,0.6,0.5,0.9,0.8c0-4.3,0,0,0-4.3c-3.8-0.8-8.6-2.2-12.3-3.2C-1527.7,358.9-1527.5,359.1-1527.4,359.4z" class="st3"/><path d="M-1501.7,366.5c-0.3-0.6-0.7-1.1-1.3-1.6c-0.5-0.5-1.2-0.9-1.9-1.3c-0.7-0.3-1.5-0.6-2.3-0.7 c-0.4-0.1-0.8-0.1-1.1-0.2c-0.8-0.1-1.6-0.1-2.3,0c-0.7,0.1-1.3,0.4-1.9,0.8c-0.5,0.4-1,0.8-1.3,1.4c-0.3,0.6-0.5,1.2-0.4,1.9 c0,3.8,0.1,7.6,0.1,11.3c0,0.7,0.2,1.4,0.5,2c0.3,0.6,0.7,1.2,1.3,1.6c0.5,0.5,1.2,0.8,1.9,1.1c0.7,0.3,1.5,0.4,2.3,0.4 c0.4,0,0.7,0,1.1,0c0.8,0,1.6-0.1,2.3-0.4c0.7-0.2,1.3-0.6,1.9-1c0.5-0.4,1-0.9,1.3-1.5c0.3-0.5,0.5-1.1,0.4-1.8 c0-3.4-0.1-6.8-0.1-10.3C-1501.3,367.7-1501.4,367.1-1501.7,366.5z M-1505.6,379.5c-0.4,0.4-0.9,0.6-1.4,0.5c-0.4,0-0.7,0-1.1,0 c-0.6,0-1.1-0.2-1.4-0.7c-0.4-0.4-0.6-0.9-0.6-1.3c0-3.5-0.1-7.1-0.1-10.6c0-0.5,0.2-0.9,0.6-1.2c0.4-0.3,0.9-0.5,1.4-0.4 c0.4,0.1,0.8,0.1,1.2,0.2c0.5,0.1,1,0.3,1.4,0.8c0.4,0.4,0.6,0.9,0.6,1.3c0,3.4,0,6.8,0.1,10.2 C-1505.1,378.7-1505.2,379.1-1505.6,379.5z" class="st3"/><path d="M-1486.4,367.5c-0.3-0.5-0.7-1-1.3-1.4c-0.5-0.4-1.2-0.8-1.9-1c-0.7-0.3-1.5-0.4-2.3-0.5c-0.4,0-0.8,0-1.2-0.1 c-0.8-0.1-1.6,0-2.3,0.2c-0.7,0.2-1.3,0.4-1.9,0.8c-0.5,0.4-1,0.8-1.3,1.3c-0.3,0.5-0.5,1.1-0.5,1.7c0,3.4,0.1,6.7,0.1,10.1 c0,0.6,0.2,1.2,0.5,1.8c0.3,0.6,0.7,1,1.3,1.4c0.5,0.4,1.2,0.7,1.9,1c0.7,0.2,1.5,0.4,2.3,0.4c0.4,0,0.7,0,1.1,0 c0.8,0,1.6-0.1,2.3-0.3c0.7-0.2,1.3-0.5,1.9-0.9c0.5-0.4,1-0.9,1.3-1.4c0.3-0.5,0.5-1.1,0.5-1.7c0-3.2,0-6.5,0-9.7 C-1485.9,368.6-1486.1,368-1486.4,367.5z M-1490.4,379.8c-0.4,0.4-0.9,0.5-1.4,0.5c-0.4,0-0.7,0-1.1,0c-0.6,0-1.1-0.2-1.4-0.6 c-0.4-0.4-0.6-0.8-0.6-1.2c0-3.2,0-6.4-0.1-9.6c0-0.4,0.2-0.8,0.6-1.1c0.4-0.3,0.9-0.5,1.4-0.5c0.4,0,0.8,0,1.2,0.1 c0.5,0,1,0.2,1.4,0.6c0.4,0.4,0.6,0.8,0.6,1.2c0,3.1,0,6.3,0,9.4C-1489.8,379.1-1490,379.4-1490.4,379.8z" class="st3"/><path d="M-1471.9,366.1c-0.5-0.4-1.1-0.6-1.9-0.8c-0.7-0.2-1.5-0.3-2.3-0.2c-2.5,0.1-5,0.1-7.5,0.1 c0.2,0.3,0.4,0.5,0.6,0.8c0.1,0.2,0.3,0.4,0.4,0.7c0.1,0.2,0.2,0.4,0.2,0.6c0,4.6,0,9.2,0,13.9c0,0.3-0.1,0.5-0.2,0.7 c-0.1,0.2-0.3,0.5-0.4,0.7c-0.2,0.3-0.4,0.5-0.6,0.7c2.5,0,5,0,7.4,0c0.8,0,1.6-0.1,2.3-0.3c0.7-0.2,1.3-0.5,1.8-0.9 c0.5-0.4,0.9-0.9,1.2-1.4c0.3-0.5,0.5-1.1,0.5-1.7c0-3.2,0-6.4,0.1-9.6c0-0.6-0.1-1.2-0.5-1.7 C-1471,366.9-1471.4,366.5-1471.9,366.1z M-1474.1,378.8c0,0.4-0.2,0.8-0.6,1c-0.4,0.3-0.8,0.4-1.4,0.4c-0.9,0-1.7,0-2.6,0 c0-4.1,0-8.2,0-12.4c0.9,0,1.7,0,2.6-0.1c0.5,0,1,0.1,1.4,0.4c0.4,0.3,0.6,0.6,0.6,1C-1474.1,372.5-1474.1,375.6-1474.1,378.8z" class="st3"/><path d="M-1462.6,365c0.1-0.2,0.2-0.4,0.4-0.6c0.2-0.2,0.4-0.4,0.6-0.6c-2.1,0.3-4.1,0.5-6.2,0.6 c0.2,0.2,0.4,0.3,0.6,0.5c0.1,0.2,0.3,0.3,0.4,0.5c0.1,0.2,0.2,0.4,0.2,0.6c0,5-0.1,10.1-0.1,15.1c0,0.2-0.1,0.5-0.2,0.7 c-0.1,0.2-0.3,0.4-0.4,0.6c-0.2,0.2-0.4,0.4-0.6,0.6c2,0,4.1,0,6.1,0c-0.2-0.2-0.4-0.3-0.6-0.6c-0.1-0.2-0.3-0.4-0.4-0.6 c-0.1-0.2-0.2-0.5-0.2-0.8c0-5.2,0.1-10.3,0.1-15.5C-1462.8,365.5-1462.7,365.2-1462.6,365z" class="st3"/><path d="M-1444.7,362.1c0.1-0.2,0.3-0.5,0.4-0.7c0.2-0.3,0.4-0.5,0.6-0.8c-2,0.5-4,0.9-6,1.3c0.2,0.1,0.4,0.3,0.6,0.5 c0.1,0.1,0.3,0.3,0.4,0.5c0.1,0.2,0.2,0.4,0.2,0.6c0,3.6-0.1,7.1-0.1,10.7c-1.7-3.3-3.5-6.4-5.2-9.5c-0.1-0.2-0.1-0.5,0-0.7 c0.1-0.3,0.2-0.5,0.4-0.7c0.2-0.3,0.4-0.5,0.6-0.8c-2.2,0.4-4.4,0.7-6.7,1c0.2,0.2,0.4,0.4,0.6,0.5c0.1,0.2,0.3,0.3,0.4,0.5 c0.1,0.2,0.2,0.3,0.2,0.5c0,5.4-0.1,10.7-0.1,16.1c0,0.3-0.1,0.5-0.2,0.7c-0.1,0.2-0.3,0.4-0.4,0.6c-0.2,0.2-0.4,0.4-0.6,0.6 c2,0,4,0,6.1,0c-0.2-0.2-0.4-0.3-0.6-0.6c-0.1-0.2-0.3-0.4-0.4-0.6c-0.1-0.2-0.2-0.5-0.2-0.8c0-3.6,0.1-7.2,0.1-10.7 c1.8,3.2,3.6,6.6,5.5,10.2c0.1,0.4,0.2,0.7,0.1,1c-0.1,0.3-0.2,0.6-0.4,0.8c-0.2,0.3-0.4,0.5-0.7,0.7c2.1,0,4.2,0,6.3,0 c-0.2-0.2-0.4-0.4-0.6-0.7c-0.1-0.2-0.3-0.4-0.4-0.7c-0.1-0.2-0.2-0.5-0.2-0.8c0-6,0.1-12.1,0.1-18.1 C-1444.8,362.6-1444.8,362.4-1444.7,362.1z" class="st3"/><path d="M-1436.7,381.6c-0.1-0.3-0.2-0.6-0.2-0.9c0-6.5,0-13,0-19.5c0-0.3,0.1-0.6,0.2-0.9c0.1-0.3,0.2-0.6,0.4-0.8 c0.2-0.3,0.4-0.6,0.6-0.8c-2,0.6-4,1.1-6,1.6c0.2,0.2,0.4,0.3,0.5,0.6c0.1,0.2,0.3,0.4,0.4,0.6c0.1,0.2,0.2,0.5,0.2,0.7 c0,6.2,0,12.5-0.1,18.7c0,0.3-0.1,0.6-0.2,0.8c-0.1,0.3-0.3,0.5-0.4,0.7c-0.2,0.3-0.4,0.5-0.6,0.7c2,0,4.1,0,6.1,0 c-0.2-0.2-0.4-0.4-0.6-0.7C-1436.5,382.1-1436.6,381.9-1436.7,381.6z" class="st3"/><path d="M-1481.8,278.8c-21.5,0-39,17.5-39,39c0,21.5,17.5,39,39,39c21.5,0,39-17.5,39-39 C-1442.9,296.3-1460.3,278.8-1481.8,278.8z M-1495,329.4c0.7-0.8,2.8-2.7,4.8-3.6c1.3-0.6,1.5-0.2,1.5,0.6l10.4-7l0.9,1.3 l-11.2,7.5c0,0,0,0-0.1,1c-0.2,1.8-2.8,3.2-5.7,3.9C-1494.9,333.3-1495.8,330.2-1495,329.4z M-1468.2,340.7h-4.7 c0,0.4,0.1,1.4-0.3,1.4c-2.5-0.1-4.6,0.6-5.3,0.7c-0.8,0.2-1.9-0.5-3-1c-1.1-0.5-2.3-0.2-2-1.1h-7.3c-0.4,0-0.7-0.3-0.7-0.7v-0.6 c0-0.4,0.3-0.7,0.7-0.7h1.2c0.4-4.9,4.2-8.9,9.1-9.4c-0.3-0.3-0.4-0.6-0.4-1c0-0.8,0.7-1.5,1.5-1.5s1.5,0.7,1.5,1.5 c0,0.4-0.2,0.8-0.4,1c4.9,0.5,8.7,4.5,9.1,9.4h1.2c0.4,0,0.7,0.3,0.7,0.7v0.6C-1467.4,340.4-1467.8,340.7-1468.2,340.7z M-1477.3,318.8l1.6-1l0.9,1.3l-1.6,1.1L-1477.3,318.8z M-1467.5,350.8c0-1.1-0.1-3.2-0.1-3.2s4.6-1.9,5.1-3.6 c4.2-15.2-2.6-26.6-2.6-26.6c-2.8-3.1-11.9-2.3-12.4-6l1.4-2.8c0,0,2.4-4.1,1.9-5.6c-0.2-0.5-1,0-1,0v-1.9c3-0.2,3.2-2,3.2-2.2 c-0.1-0.3-0.2-0.5-0.3-0.8c-0.3-0.4-0.8-0.6-1.3-0.7c-1.5-0.2-3.1,0.4-4.5,0.6c-2.2,0.4-4.7,0.5-7,0.2c-1.6-0.2-3.2-0.8-4.8-0.8 c-0.6,0-1.3,0-1.8,0.4c-0.2,0.2-0.4,0.5-0.5,0.8c0,0.1,0.3,2,3.1,2.4v1.9c0,0-0.8-0.5-1,0c-0.5,1.5,1.9,5.6,1.9,5.6l1.4,2.8 c-0.5,4-11.2,2.7-13,6.9c-2.3,5.3-6.6,20.1-1.3,21.7c1.7,0.5,2.6-1.4,2.7-0.4c0.4,3.3,0.3,6-0.6,9.8c-11.2-6.1-18.8-18-18.8-31.6 c0-19.8,16.1-36,36-36c19.8,0,36,16.1,36,36C-1445.8,332.5-1454.8,345.2-1467.5,350.8z" class="st3"/><polygon points="-1464 291 -1464.8 292.7 -1466.7 293 -1465.3 294.3 -1465.6 296.1 -1464 295.2 -1462.3 296.1 -1462.6 294.3 -1461.3 293 -1463.2 292.7" class="st3"/><polygon points="-1456.5 303.3 -1456.7 304.6 -1455.6 304 -1454.5 304.6 -1454.7 303.3 -1453.8 302.4 -1455 302.3 -1455.6 301.1 -1456.1 302.3 -1457.4 302.4" class="st3"/><polygon points="-1501.3 296.5 -1499.9 297.2 -1500.2 295.6 -1499 294.5 -1500.6 294.2 -1501.3 292.8 -1502 294.2 -1503.7 294.5 -1502.5 295.6 -1502.8 297.2" class="st3"/><polygon points="-1509.8 322.4 -1510.6 320.8 -1511.4 322.4 -1513.1 322.7 -1511.9 323.9 -1512.2 325.6 -1510.6 324.8 -1509.1 325.6 -1509.4 323.9 -1508.1 322.7" class="st3"/><polygon points="-1452.6 326.9 -1453.4 325.4 -1454.1 326.9 -1455.8 327.1 -1454.6 328.3 -1454.9 330 -1453.4 329.2 -1451.9 330 -1452.2 328.3 -1451 327.1" class="st3"/><polygon points="-1510.8 307.3 -1511.7 309.2 -1513.7 309.5 -1512.3 310.9 -1512.6 313 -1510.8 312 -1508.9 313 -1509.3 310.9 -1507.8 309.5 -1509.8 309.2" class="st3"/><polygon points="-1454.8 313.8 -1457.3 314.2 -1455.5 315.9 -1455.9 318.3 -1453.8 317.2 -1451.6 318.3 -1452 315.9 -1450.2 314.2 -1452.7 313.8 -1453.8 311.6" class="st3"/><polygon points="-1463.5 306.4 -1464.4 304.6 -1465.2 306.4 -1467.2 306.6 -1465.8 308 -1466.1 310 -1464.4 309.1 -1462.6 310 -1462.9 308 -1461.5 306.6" class="st3"/><polygon points="-1498.2 305.7 -1499 304.2 -1499.7 305.7 -1501.3 305.9 -1500.1 307.1 -1500.4 308.7 -1499 307.9 -1497.5 308.7 -1497.8 307.1 -1496.6 305.9" class="st3"/><path d="M-1477.1,285c-1.7-0.2-3.4-0.3-5.1-0.3c-0.8,0-1.6,0-2.4,0.1c-1.1,0-2.2,0.1-3.3,0.3c-0.7,0.1-1.5,0.2-2.1,0.5 c-0.1,0.1-0.4,0.2-0.3,0.4l1.1,10c2.4,0.6,4.8,1,7.2,1c1.9,0,3.9-0.4,5.8-0.8c0.3-0.1,0.5-0.1,0.8-0.2l1.1-10 C-1474.2,285.2-1476.7,285.1-1477.1,285z" class="st3"/></g><g><ellipse cx="313.6" cy="312.4" class="st1" rx="268.1" ry="268" transform="matrix(0.7071 -0.7071 0.7071 0.7071 -129.0276 313.2455)"/><g><path d="M672.1,224.7c1.4,2,2.7,4,3.9,6.1c1,1.7,2,3.5,2.8,5.3c0.9,1.9,1.3,3.6,1.3,5.2c0,46.9,0.1,93.7,0.1,140.6 c0,1.9-0.4,3.8-1.3,5.7c-0.9,1.9-1.8,3.7-2.9,5.4c-1.2,1.9-2.5,3.8-3.9,5.7c14.3,0,28.6,0.1,42.9,0.1c-1.6-1.5-3-3.1-4.2-5 c-1.1-1.5-2-3.2-2.8-5.1c-0.8-1.9-1.2-3.9-1.2-5.9c-0.1-17.2-0.1-34.3-0.2-51.5c8.5,0.9,16.9,1.7,25.4,2.5c0.1,0,0.2,0,0.3,0 c1.9,0.2,3.8,0.8,5.5,1.7c1.7,1,3.3,2,4.7,3c1.6,1.2,3.1,2.5,4.5,3.9c-0.1-12.8-0.2-25.5-0.3-38.3c-1.6,1.2-3.2,2.2-5,3.1 c-1.4,0.8-3,1.4-4.7,1.9c-1.7,0.5-3.4,0.6-5,0.4c-0.1,0-0.2,0-0.3,0c-8.5-1.1-16.9-2.3-25.4-3.5c-0.1-15.7-0.1-31.4-0.2-47 c11.2,2.4,22.4,4.7,33.6,6.8c2.4,0.5,4.8,1.4,7.2,2.8c2.4,1.4,4.5,2.8,6.4,4.4c2.1,1.8,4.2,3.6,6.3,5.5c0-30.9,0,0,0-30.9 C733,241.9,698.7,232.3,672.1,224.7z" class="st0"/><path d="M849.4,269.6c-3.8-3.5-8.2-6.5-13.3-8.9c-5-2.5-10.4-4.1-16.2-5c-2.7-0.4-5.4-0.9-8.2-1.3 c-5.8-0.9-11.2-1-16.2,0c-5,1-9.4,2.7-13.2,5.4c-3.8,2.6-6.8,5.9-9,9.8c-2.2,3.9-3.2,8.4-3.2,13.4c0.2,26.9,0.4,53.8,0.6,80.7 c0,5,1.2,9.8,3.4,14.2c2.2,4.5,5.3,8.3,9.2,11.6c3.9,3.3,8.3,5.9,13.4,7.8c5,1.9,10.4,2.9,16.2,2.9c2.6-0.1,5.3-0.1,7.9-0.2 c5.8,0,11.2-0.9,16.2-2.6c5-1.7,9.4-4.1,13.2-7.2c3.8-3,6.8-6.5,9-10.4c2.2-3.9,3.2-8.1,3.2-12.6c-0.2-24.3-0.4-48.7-0.6-73 c0-4.5-1.2-8.9-3.4-13C856.2,276.9,853.2,273.1,849.4,269.6z M834.8,365c0,3.1-1.3,6-4,8.7c-2.7,2.7-6.1,4-10.2,3.9 c-2.7,0-5.3,0-8,0c-4.1-0.1-7.5-1.6-10.2-4.7c-2.8-3-4.2-6.1-4.2-9.4c-0.2-25.1-0.4-50.2-0.6-75.3c0-3.2,1.3-6.1,4-8.6 c2.7-2.5,6.1-3.4,10.2-2.8c2.7,0.4,5.5,0.7,8.2,1.1c3.9,0.5,7.3,2.3,10.1,5.4c2.9,3.1,4.3,6.2,4.3,9.3 C834.5,316.7,834.6,340.8,834.8,365z" class="st0"/><path d="M958.5,277.9c-3.8-3-8.3-5.4-13.3-7.3c-5.1-1.9-10.5-3-16.3-3.3c-2.7-0.2-5.5-0.3-8.2-0.5 c-5.8-0.4-11.3,0-16.3,1.3c-5,1.3-9.5,3.2-13.3,5.8c-3.9,2.6-6.9,5.8-9.1,9.4c-2.2,3.7-3.2,7.7-3.2,12.2c0.2,24,0.4,48,0.6,72 c0,4.5,1.2,8.7,3.4,12.7c2.2,4,5.3,7.4,9.2,10.3c3.9,2.9,8.3,5.2,13.3,7c5,1.7,10.4,2.6,16.2,2.6c2.6-0.1,5.3-0.1,7.9-0.2 c5.8,0,11.2-0.8,16.2-2.5c5-1.6,9.4-3.9,13.3-6.7c3.9-2.8,6.9-6.1,9.1-9.8c2.2-3.7,3.3-7.7,3.3-12c0-23-0.1-45.9-0.2-68.9 c0-4.3-1.1-8.3-3.4-12C965.4,284.3,962.4,280.9,958.5,277.9z M943.4,367.5c0,2.9-1.4,5.6-4.1,8.1c-2.7,2.5-6.1,3.8-10.2,3.7 c-2.7,0-5.3,0.1-8,0.1c-4.1,0-7.5-1.4-10.2-4.1c-2.8-2.7-4.1-5.5-4.2-8.4c-0.1-22.8-0.3-45.5-0.4-68.3c0-2.9,1.3-5.6,4.1-8 c2.7-2.4,6.2-3.5,10.3-3.2c2.8,0.2,5.5,0.3,8.3,0.5c3.9,0.2,7.3,1.6,10.2,4.3c2.9,2.7,4.3,5.4,4.3,8.3 C943.4,322.8,943.4,345.2,943.4,367.5z" class="st0"/><path d="M1070.8,278.3c-3.7-2.6-8.1-4.6-13.2-6c-5.1-1.4-10.6-2-16.5-1.8c-17.7,0.6-35.4,0.8-53.2,0.6 c1.4,2,2.8,3.8,4,5.5c1.1,1.4,2,3,2.9,4.7c0.9,1.7,1.3,3,1.3,4.1c0,32.9,0,65.7,0,98.6c0,1.8-0.4,3.6-1.3,5.3 c-0.9,1.8-1.8,3.4-2.9,4.9c-1.2,1.8-2.5,3.6-3.9,5.2c17.6,0,35.3,0,52.9,0c5.8,0,11.2-0.8,16.2-2.5c5-1.6,9.4-3.8,13.1-6.6 c3.7-2.8,6.7-6.1,8.9-9.8c2.2-3.8,3.3-7.9,3.4-12.2c0.1-22.9,0.3-45.8,0.4-68.6c0-4.4-1.1-8.4-3.2-12 C1077.4,284.1,1074.5,280.9,1070.8,278.3z M1055,368.7c0,2.9-1.4,5.3-4.1,7.4c-2.7,2-6,3.1-9.9,3.1c-6.1,0-12.1,0.1-18.2,0.1 c0.1-29.3,0.1-58.7,0.2-88c6.1-0.1,12.2-0.2,18.3-0.4c3.9-0.1,7.2,0.8,9.9,2.7c2.7,1.9,4.1,4.4,4.1,7.4 C1055.2,323.5,1055.1,346.1,1055,368.7z" class="st0"/><path d="M1136.9,270.4c0.8-1.6,1.7-3,2.8-4.2c1.2-1.5,2.7-2.9,4.3-4c-14.6,1.8-29.3,3.3-44,4.5c1.4,1.1,2.7,2.3,4,3.7 c1,1.1,2,2.4,2.9,3.8c0.9,1.4,1.3,2.8,1.3,4.3c-0.3,35.9-0.5,71.8-0.8,107.8c0,1.7-0.5,3.4-1.3,4.8c-0.9,1.5-1.9,2.8-2.9,4 c-1.2,1.5-2.6,2.8-4,4c14.6,0,29.1,0,43.7,0c-1.6-1.1-3-2.4-4.2-3.9c-1-1.2-2-2.7-2.7-4.3c-0.8-1.6-1.2-3.4-1.1-5.3 c0.3-36.7,0.6-73.4,0.9-110C1135.7,273.6,1136.1,272,1136.9,270.4z" class="st0"/><path d="M1264.5,250.1c0.9-1.8,1.8-3.4,2.9-4.9c1.2-1.9,2.6-3.7,4.2-5.5c-14.2,3.3-28.5,6.4-42.9,9.2 c1.6,1.1,2.9,2.2,4.2,3.5c1,1,2,2.2,2.9,3.6c0.9,1.4,1.3,2.7,1.3,4.1c-0.2,25.3-0.4,50.7-0.6,76c-12.3-23.5-24.7-45.9-37-67.4 c-0.5-1.7-0.4-3.4,0.3-5.2c0.7-1.8,1.6-3.5,2.7-5.2c1.2-1.8,2.7-3.6,4.5-5.4c-15.8,2.8-31.6,5.3-47.4,7.4c1.4,1.2,2.7,2.5,3.9,3.9 c1,1.1,2,2.3,2.9,3.5c0.9,1.2,1.3,2.3,1.3,3.3c-0.2,38.2-0.5,76.4-0.7,114.6c0,1.8-0.5,3.6-1.4,5.2c-0.9,1.6-1.9,3.1-2.9,4.4 c-1.2,1.6-2.7,2.9-4.2,4c14.4,0,28.8,0,43.2,0c-1.6-1.2-3-2.5-4.2-3.9c-1-1.2-2-2.6-2.9-4.2c-0.9-1.7-1.3-3.5-1.3-5.5 c0.2-25.5,0.4-50.9,0.7-76.4c12.9,23.1,25.9,47.1,38.8,72.5c1,2.6,1.2,5,0.6,7.2c-0.6,2.2-1.5,4.1-2.5,5.6 c-1.2,1.8-2.8,3.4-4.8,4.8c14.9,0,29.8,0,44.8-0.1c-1.6-1.4-3-3-4.2-4.8c-1-1.4-2-3-2.9-4.8c-0.9-1.7-1.3-3.6-1.3-5.7 c0.3-43,0.5-86,0.8-129C1263.2,253.5,1263.7,251.9,1264.5,250.1z" class="st0"/><path d="M1320.9,388.3c-0.8-2.1-1.2-4.3-1.2-6.7c0-46.4,0.1-92.7,0.1-139.1c0-2.2,0.4-4.4,1.2-6.5 c0.8-2.1,1.7-4,2.7-5.7c1.2-2.1,2.6-3.9,4.1-5.6c-14.3,4.1-28.6,7.9-43,11.5c1.4,1.1,2.7,2.5,3.9,4c1,1.2,2,2.7,2.8,4.3 c0.9,1.6,1.3,3.3,1.3,5.2c-0.2,44.4-0.3,88.9-0.5,133.3c0,2.2-0.5,4.2-1.3,6c-0.9,1.8-1.9,3.5-2.9,5c-1.2,1.8-2.6,3.5-4,5 c14.6,0,29.1-0.1,43.7-0.1c-1.6-1.4-3-3.1-4.2-5C1322.6,392.2,1321.7,390.4,1320.9,388.3z" class="st0"/></g><g><path d="M314.4,34.1c-152.9,0-277.3,124.4-277.3,277.3c0,152.9,124.4,277.3,277.3,277.3 c152.9,0,277.3-124.4,277.3-277.3C591.6,158.5,467.3,34.1,314.4,34.1z M220.3,394.1c5.3-5.9,20.3-19,34-25.3 c8.9-4.2,11-1.2,11,4.3l74-49.5l6.2,9.4l-79.8,53.4c0,0,0,0-0.8,7.3c-1.5,13-20.1,23-40.7,27.5C221.1,421.8,215.1,400,220.3,394.1 z M364.1,320.6l-11.1,7.5l-6.3-9.5l11.1-7.3L364.1,320.6z M411.5,474.6H378c-0.3,2.8,0.8,9.9-2.4,9.8c-18.1-0.4-33,4.1-37.8,5.1 c-5.9,1.2-13.3-3.6-21.2-6.8c-7.9-3.3-16.5-1.7-14.6-8.1h-52.3c-2.9,0-5.3-2.4-5.3-5.3v-4c0-2.9,2.4-5.3,5.3-5.3h8.6 c2.7-35,30-63.2,64.8-66.7c-1.8-1.9-3-4.4-3-7.3c0-5.8,4.7-10.4,10.4-10.4c5.8,0,10.4,4.7,10.4,10.4c0,2.8-1.1,5.4-3,7.3 c34.8,3.6,62.1,31.7,64.8,66.7h8.6c2.9,0,5.3,2.4,5.3,5.3v4C416.8,472.2,414.4,474.6,411.5,474.6z M416.4,546.2 c0-7.8-1-22.6-1-22.6s32.6-13.3,36-25.6c29.8-108-18.8-189.5-18.8-189.5c-19.9-22.1-85-16.1-88-42.5l10.1-20 c0,0,17.1-29,13.5-39.7c-1.3-3.8-6.9,0-6.9,0v-13.3c21.1-1.2,22.8-14.6,22.6-15.4c-0.5-1.9-1.2-3.8-2.4-5.5 c-2.2-3-5.6-4.3-9.1-4.7c-10.5-1.2-22,2.6-32.2,4.6c-15.9,3.2-33.7,3.4-49.8,1.3c-11.5-1.5-22.7-5.4-34.3-6 c-4.4-0.2-9.4,0-12.8,3.1c-1.7,1.5-2.8,3.6-3.5,5.7c-0.3,1,2.1,14,22.2,16.8v13.3c0,0-5.7-3.8-6.9,0 c-3.6,10.7,13.5,39.7,13.5,39.7l10.1,20c-3.3,28.7-80,19.1-92.2,48.8C170,352.6,139.5,458,177,469.5c12.2,3.7,18.3-9.6,19.2-2.9 c3.1,23.7,2.4,43-4.2,69.7c-79.6-43.5-133.7-128-133.7-224.9c0-141.2,114.9-256.1,256.1-256.1c141.2,0,256.1,114.9,256.1,256.1 C570.5,416.3,507,506.7,416.4,546.2z" class="st0"/><polygon points="441.4 121 435.5 132.9 422.4 134.8 431.9 144.1 429.7 157.2 441.4 151 453.2 157.2 450.9 144.1 460.5 134.8 447.3 132.9" class="st0"/><polygon points="493.3 217.5 501.2 213.3 509.2 217.5 507.7 208.6 514.1 202.3 505.2 201 501.2 192.9 497.3 201 488.4 202.3 494.8 208.6" class="st0"/><polygon points="175.7 159.7 186 165.2 184 153.7 192.3 145.6 180.8 143.9 175.7 133.5 170.5 143.9 159 145.6 167.4 153.7 165.4 165.2" class="st0"/><polygon points="115.1 344.4 109.6 333.2 104.1 344.4 91.7 346.2 100.6 354.9 98.5 367.2 109.6 361.4 120.7 367.2 118.5 354.9 127.5 346.2" class="st0"/><polygon points="522.2 376.3 516.9 365.6 511.6 376.3 499.8 378 508.4 386.4 506.4 398.1 516.9 392.6 527.5 398.1 525.5 386.4 534 378" class="st0"/><polygon points="108.5 236.8 102 250.1 87.3 252.2 97.9 262.6 95.4 277.2 108.5 270.3 121.7 277.2 119.2 262.6 129.8 252.2 115.1 250.1" class="st0"/><polygon points="514.1 307.1 529.6 315.3 526.7 298 539.2 285.8 521.9 283.3 514.1 267.6 506.4 283.3 489.1 285.8 501.6 298 498.7 315.3" class="st0"/><polygon points="444.9 230.2 438.7 217.6 432.4 230.2 418.5 232.2 428.6 242.1 426.2 256 438.7 249.4 451.2 256 448.8 242.1 458.9 232.2" class="st0"/><polygon points="197.8 225.2 192.6 214.7 187.4 225.2 175.7 226.9 184.1 235.2 182.1 246.8 192.6 241.3 203 246.8 201 235.2 209.5 226.9" class="st0"/><path d="M312.3,76.7c-5.7,0-11.4,0.1-17,0.4c-7.8,0.3-15.7,0.8-23.4,1.8c-4.7,0.6-10.4,1.1-14.7,3.4 c-1,0.5-2.5,1.3-2.4,2.7l7.6,70.9c16.7,4.6,34,6.9,51.3,7.2c13.8,0.2,27.7-2.5,41.1-5.7c1.9-0.5,3.9-0.9,5.8-1.5l7.6-70.9 c0.5-5.1-17.2-6.2-19.9-6.5C336.4,77.2,324.3,76.7,312.3,76.7z" class="st0"/></g><g><path d="M1205.1,424.9h13.1l4.6,18.7l4.6-18.7h13.1l-8.8,27.9h-17.7L1205.1,424.9z" class="st0"/><path d="M1242.2,434.7v-12.5l10.7-8h11.8v38.6h-13.4v-24.7L1242.2,434.7z" class="st0"/><path d="M1276.8,440.9c3.9,0,6.7,2.7,6.7,6.4s-2.8,6.4-6.7,6.4c-3.9,0-6.7-2.7-6.7-6.4S1273,440.9,1276.8,440.9z" class="st0"/><path d="M1306.2,412.8c10.9,0,18.8,8.7,18.8,20.7c0,12-7.9,20.6-18.8,20.6c-10.9,0-18.8-8.7-18.8-20.6 C1287.4,421.5,1295.3,412.8,1306.2,412.8z M1306.2,442.3c3.1,0,5.4-3.7,5.4-8.8c0-5.1-2.3-8.9-5.4-8.9s-5.4,3.7-5.4,8.9 C1300.8,438.6,1303.1,442.3,1306.2,442.3z" class="st0"/></g></g></svg>