<svg xmlns="http://www.w3.org/2000/svg" xmlns:xlink="http://www.w3.org/1999/xlink" id="Warstwa_1" x="0" y="0" version="1.1" viewBox="0 0 90.1 101.4" xml:space="preserve" style="enable-background:new 0 0 90.1 101.4"><style type="text/css">.st0{fill:#fff}.st2{fill:#412312}.st8{fill:#ffe09e}.st9{fill:#dbd8db}.st10{fill:#eceaec}</style><path d="M76.2,94.5H21.5c-3.2,0-5.7-2.6-5.7-5.7V16.9c0-3.2,2.6-5.7,5.7-5.7h54.7c3.2,0,5.7,2.6,5.7,5.7v71.9	C81.9,91.9,79.3,94.5,76.2,94.5z" class="st8"/><path d="M21.5,16.9h54.6v69H21.5V16.9z" class="st0"/><path d="M57.5,19.8H40.2c-1.6,0-2.9-1.3-2.9-2.9v-5.8h23v5.8C60.3,18.5,59.1,19.8,57.5,19.8z" class="st9"/><path d="M34.5,81.6c-4.8,0-8.6-3.9-8.6-8.6V16.9h-4.3v69h54.6v-4.3H34.5z" class="st10"/><path d="M37.3,15.4v1.4c0,1.6,1.3,2.9,2.9,2.9h17.3c1.6,0,2.9-1.3,2.9-2.9v-1.4H37.3z" class="st10"/><path d="M76.2,9.8H54.5V9.7C54.5,6.6,52,4,48.8,4s-5.7,2.5-5.7,5.7v0.1H21.5c-3.9,0-7.1,3.2-7.1,7.1v71.9	c0,3.9,3.2,7.1,7.1,7.1h54.7c3.9,0,7.1-3.2,7.1-7.1V16.9C83.2,13,80.1,9.8,76.2,9.8z M45.9,9.7c0-1.6,1.3-3,3-3s3,1.3,3,3v0.1	L45.9,9.7L45.9,9.7L45.9,9.7z M59,12.5v4.4c0,0.8-0.7,1.5-1.5,1.5H40.2c-0.8,0-1.5-0.7-1.5-1.5v-4.4H59z M80.6,88.8	c0,2.4-2,4.4-4.4,4.4H21.5c-2.4,0-4.4-2-4.4-4.4V16.9c0-2.4,2-4.4,4.4-4.4H36v4.4c0,2.3,1.9,4.2,4.2,4.2h17.3c2.3,0,4.2-1.9,4.2-4.2	v-4.4h14.5c2.4,0,4.4,2,4.4,4.4V88.8z" class="st2"/><path d="M21.5,78.6c0.7,0,1.3-0.6,1.3-1.3v-59h8.7c0.7,0,1.3-0.6,1.3-1.3c0-0.7-0.6-1.3-1.3-1.3H21.5	c-0.7,0-1.3,0.6-1.3,1.3v60.4C20.2,78,20.8,78.6,21.5,78.6z" class="st2"/><path d="M76.2,15.5H66.1c-0.7,0-1.3,0.6-1.3,1.3c0,0.7,0.6,1.3,1.3,1.3h8.7v66.3H22.9V83c0-0.7-0.6-1.3-1.3-1.3	c-0.7,0-1.3,0.6-1.3,1.3v2.9c0,0.7,0.6,1.3,1.3,1.3h54.6c0.7,0,1.3-0.6,1.3-1.3v-69C77.5,16.1,76.9,15.5,76.2,15.5z" class="st2"/><path d="M29.2,27.1c-0.6,0.1-1,0.7-1,1.3V37c0,0.7,0.6,1.3,1.3,1.3c0.7,0,1.3-0.6,1.3-1.3v-2.9l1.8,3.5	c0.2,0.5,0.7,0.7,1.2,0.7c0.5,0,1-0.3,1.2-0.7l1.8-3.5V37c0,0.7,0.6,1.3,1.3,1.3s1.3-0.6,1.3-1.3v-8.6c0-0.6-0.4-1.2-1-1.3	c-0.6-0.1-1.2,0.1-1.5,0.7L33.8,34l-3.1-6.2C30.4,27.2,29.8,26.9,29.2,27.1z" class="st2"/><path d="M42.5,38.4h5.8c0.7,0,1.3-0.6,1.3-1.3c0-0.7-0.6-1.3-1.3-1.3h-4.4V34H46c0.7,0,1.3-0.6,1.3-1.3	c0-0.7-0.6-1.3-1.3-1.3h-2.2v-1.6h4.4c0.7,0,1.3-0.6,1.3-1.3c0-0.7-0.6-1.3-1.3-1.3h-5.8c-0.7,0-1.3,0.6-1.3,1.3V37	C41.1,37.8,41.7,38.4,42.5,38.4z" class="st2"/><path d="M52.5,38.4c0.7,0,1.3-0.6,1.3-1.3v-4.2l3.3,4.9c0.3,0.4,0.7,0.6,1.1,0.6c0.1,0,0.3,0,0.4-0.1	c0.6-0.2,1-0.7,1-1.3v-8.6c0-0.7-0.6-1.3-1.3-1.3c-0.7,0-1.3,0.6-1.3,1.3v4.2l-3.3-4.9c-0.3-0.5-0.9-0.7-1.5-0.5	c-0.6,0.2-1,0.7-1,1.3V37C51.2,37.8,51.8,38.4,52.5,38.4z" class="st2"/><path d="M65.5,38.4c2.3,0,4.2-1.9,4.2-4.2v-5.8c0-0.7-0.6-1.3-1.3-1.3c-0.7,0-1.3,0.6-1.3,1.3v5.8	c0,0.8-0.7,1.5-1.5,1.5s-1.5-0.7-1.5-1.5v-5.8c0-0.7-0.6-1.3-1.3-1.3c-0.7,0-1.3,0.6-1.3,1.3v5.8C61.2,36.5,63.1,38.4,65.5,38.4z" class="st2"/><path d="M28.8,44.2c0,0.7,0.6,1.3,1.3,1.3h37.4c0.7,0,1.3-0.6,1.3-1.3c0-0.7-0.6-1.3-1.3-1.3H30.1	C29.4,42.9,28.8,43.5,28.8,44.2z" class="st2"/><path d="M67.5,50h-2.9c-0.7,0-1.3,0.6-1.3,1.3s0.6,1.3,1.3,1.3h2.9c0.7,0,1.3-0.6,1.3-1.3S68.3,50,67.5,50z" class="st2"/><path d="M67.5,64.4h-2.9c-0.7,0-1.3,0.6-1.3,1.3c0,0.7,0.6,1.3,1.3,1.3h2.9c0.7,0,1.3-0.6,1.3-1.3	C68.9,65,68.3,64.4,67.5,64.4z" class="st2"/><path d="M67.5,57.2h-2.9c-0.7,0-1.3,0.6-1.3,1.3c0,0.7,0.6,1.3,1.3,1.3h2.9c0.7,0,1.3-0.6,1.3-1.3	C68.9,57.8,68.3,57.2,67.5,57.2z" class="st2"/><path d="M67.5,71.6h-2.9c-0.7,0-1.3,0.6-1.3,1.3c0,0.7,0.6,1.3,1.3,1.3h2.9c0.7,0,1.3-0.6,1.3-1.3	C68.9,72.2,68.3,71.6,67.5,71.6z" class="st2"/><path d="M58.9,50H30.1c-0.7,0-1.3,0.6-1.3,1.3s0.6,1.3,1.3,1.3h28.8c0.7,0,1.3-0.6,1.3-1.3S59.6,50,58.9,50z" class="st2"/><path d="M60.2,65.8c0-0.7-0.6-1.3-1.3-1.3H30.1c-0.7,0-1.3,0.6-1.3,1.3c0,0.7,0.6,1.3,1.3,1.3h28.8	C59.6,67.1,60.2,66.5,60.2,65.8z" class="st2"/><path d="M30.1,59.9h20.1c0.7,0,1.3-0.6,1.3-1.3c0-0.7-0.6-1.3-1.3-1.3H30.1c-0.7,0-1.3,0.6-1.3,1.3	C28.8,59.3,29.4,59.9,30.1,59.9z" class="st2"/><path d="M30.1,71.6c-0.7,0-1.3,0.6-1.3,1.3c0,0.7,0.6,1.3,1.3,1.3h20.1c0.7,0,1.3-0.6,1.3-1.3c0-0.7-0.6-1.3-1.3-1.3	H30.1z" class="st2"/></svg>