<?xml version="1.0" encoding="utf-8"?>
<!-- Generator: Adobe Illustrator 23.0.1, SVG Export Plug-In . SVG Version: 6.00 Build 0)  -->
<svg version="1.1" id="Warstwa_1" xmlns="http://www.w3.org/2000/svg" xmlns:xlink="http://www.w3.org/1999/xlink" x="0px" y="0px"
	 viewBox="0 0 512 512" style="enable-background:new 0 0 512 512;" xml:space="preserve">
<style type="text/css">
	.st0{fill:#5C2383;}
</style>
<path class="st0" d="M410.3,512c-2.2,0-4.4-0.5-6.5-1.4L256,444.8l-147.8,65.8c-5.5,2.4-11.8,1.6-16.5-2.1
	c-4.7-3.7-6.9-9.8-5.7-15.7l32.6-163.3L4.7,215.4c-4.2-4.2-5.7-10.3-4-16c1.7-5.6,6.4-9.9,12.2-11.1l163.3-32.7l65.2-147
	c5.2-11.6,24.1-11.6,29.3,0l65.2,147l163.3,32.7c5.8,1.2,10.5,5.4,12.2,11.1c1.7,5.7,0.2,11.8-4,16L393.4,329.6L426,492.8
	c1.2,5.9-1,11.9-5.7,15.7C417.4,510.8,413.8,512,410.3,512L410.3,512z M256,411.3c2.2,0,4.4,0.5,6.5,1.4l126,56.1l-28.2-141.3
	c-1-5.3,0.6-10.7,4.4-14.5l98.9-99l-142.1-28.5c-5.1-1-9.4-4.4-11.5-9.2L256,54.7l-54,121.6c-2.1,4.8-6.4,8.2-11.5,9.2L48.4,213.9
	l98.9,99c3.8,3.8,5.4,9.2,4.4,14.5l-28.2,141.3l126-56.1C251.6,411.7,253.8,411.3,256,411.3L256,411.3z"/>
</svg>
